{"glyphs":{"0":{"ha":846,"x_min":0,"x_max":0,"o":"m 646 481 b 422 6 646 90 549 6 b 197 481 300 6 197 90 b 422 972 197 872 297 972 b 646 481 542 972 646 872 z m 796 481 b 422 990 796 719 728 990 b 47 481 115 990 47 719 b 422 -12 47 243 115 -12 b 796 481 728 -12 796 243 z "},"1":{"ha":535,"x_min":0,"x_max":0,"o":"m 450 17 b 343 125 401 17 343 18 l 343 990 l 297 990 l 83 815 l 94 800 b 222 788 146 840 222 889 l 222 125 b 108 17 222 22 165 17 l 108 0 l 450 0 l 450 17 z "},"2":{"ha":661,"x_min":0,"x_max":0,"o":"m 593 200 b 464 121 563 144 511 121 l 165 121 b 385 442 165 121 318 351 b 553 758 493 588 553 667 b 314 990 553 885 453 990 b 56 729 314 990 71 997 l 76 725 b 360 461 132 1008 639 882 l 53 0 l 556 0 l 611 200 z "},"3":{"ha":696,"x_min":0,"x_max":0,"o":"m 74 67 b 307 -12 115 25 192 -12 b 626 292 438 -12 635 50 b 403 538 624 392 546 497 b 318 990 665 685 542 990 b 63 765 296 990 78 990 l 83 763 b 367 860 107 890 279 936 b 233 507 488 758 446 543 l 233 488 b 501 254 439 472 494 338 b 306 6 514 96 447 6 b 164 51 194 6 154 49 b 203 90 182 57 194 71 b 158 190 218 131 199 175 b 60 146 119 206 75 186 b 74 67 49 118 56 85 z "},"4":{"ha":729,"x_min":0,"x_max":0,"o":"m 408 356 l 154 356 b 135 413 117 356 96 356 l 408 818 z m 681 282 l 681 356 l 546 356 l 546 978 l 493 983 l 38 303 l 38 282 l 408 282 l 408 161 b 304 18 408 24 363 18 l 304 0 l 650 0 l 650 18 b 546 168 592 18 546 21 l 546 282 z "},"5":{"ha":743,"x_min":0,"x_max":0,"o":"m 669 338 b 115 590 653 510 468 671 l 158 849 l 600 849 l 638 978 l 157 978 l 74 467 b 558 301 381 532 525 414 b 315 6 608 139 489 6 b 179 57 204 6 163 50 b 219 97 196 63 213 76 b 172 199 233 139 213 185 b 71 150 131 213 85 192 b 89 68 61 122 71 88 b 315 -12 108 47 176 -12 b 669 338 493 -12 693 89 z "},"6":{"ha":758,"x_min":0,"x_max":0,"o":"m 560 278 b 385 6 560 63 489 6 b 206 388 261 6 206 122 b 400 553 206 478 290 553 b 560 278 479 553 560 486 z m 699 303 b 439 601 699 444 636 601 b 206 444 331 601 243 551 b 453 971 206 835 313 979 b 538 942 529 968 547 940 b 488 915 518 944 500 931 b 500 807 461 883 467 833 b 608 819 533 781 582 786 b 618 900 626 842 631 878 b 432 990 608 921 572 990 b 58 442 213 990 58 746 b 385 -12 58 165 150 -12 b 699 303 578 -12 699 88 z "},"7":{"ha":765,"x_min":0,"x_max":0,"o":"m 89 978 l 63 776 l 81 776 b 206 857 106 833 139 857 l 625 857 b 271 0 361 499 288 263 l 417 0 b 644 857 417 203 460 529 l 715 978 z "},"8":{"ha":750,"x_min":0,"x_max":0,"o":"m 547 765 b 431 569 549 660 479 586 b 208 814 282 629 208 692 b 369 972 208 915 288 972 b 547 765 453 972 544 932 z m 386 -12 b 703 263 565 -12 703 67 b 453 557 703 397 588 490 b 636 774 558 583 636 692 b 369 990 636 906 536 990 b 99 747 225 990 99 908 b 285 485 99 640 147 567 b 50 221 165 446 50 340 b 386 -12 50 54 181 -12 z m 356 444 b 582 203 500 368 581 307 b 386 6 583 50 465 6 b 158 226 263 6 158 72 b 306 472 158 385 258 450 b 356 444 326 460 332 457 z "},"9":{"ha":749,"x_min":0,"x_max":0,"o":"m 190 703 b 365 972 190 906 261 972 b 540 593 489 972 540 865 b 350 428 540 503 460 428 b 190 703 271 428 190 494 z m 51 679 b 311 379 51 536 114 379 b 540 535 419 379 500 425 b 303 6 540 117 481 -1 b 207 43 228 10 196 43 b 257 69 226 43 243 54 b 244 178 283 103 278 153 b 136 165 211 206 163 200 b 126 85 117 143 114 108 b 324 -12 136 64 171 -12 b 688 550 574 -12 688 199 b 365 990 688 826 600 990 b 51 679 172 990 51 886 z "}," ":{"ha":347,"x_min":0,"x_max":0,"o":""},"!":{"ha":408,"x_min":0,"x_max":0,"o":"m 239 263 l 271 1035 l 142 1035 l 172 263 z m 286 69 b 204 -12 286 25 250 -12 b 122 69 160 -12 122 25 b 204 151 122 115 160 151 b 286 69 250 151 286 115 z "},"\"":{"ha":658,"x_min":0,"x_max":0,"o":"m 435 522 l 500 522 l 533 978 l 400 978 z m 176 522 l 240 522 l 274 978 l 140 978 z "},"#":{"ha":975,"x_min":0,"x_max":0,"o":"m 621 664 l 564 417 l 343 417 l 399 664 z m 907 664 l 907 746 l 726 746 l 794 1036 l 707 1036 l 639 746 l 418 746 l 485 1036 l 397 1036 l 329 746 l 143 746 l 143 664 l 311 664 l 256 417 l 56 417 l 56 335 l 236 335 l 160 0 l 247 0 l 324 335 l 546 335 l 469 0 l 557 0 l 633 335 l 819 335 l 819 417 l 651 417 l 708 664 z "},"$":{"ha":747,"x_min":0,"x_max":0,"o":"m 383 6 l 383 407 l 465 354 b 383 6 613 250 618 14 z m 344 606 l 290 642 b 344 972 82 778 194 969 z m 519 492 l 383 581 l 383 971 b 650 690 582 958 636 818 l 663 690 l 663 925 b 383 990 663 925 561 982 l 383 1161 l 344 1161 l 344 990 b 83 882 153 989 83 882 b 235 504 -24 717 103 592 l 344 433 l 344 7 b 69 332 143 28 83 172 l 58 332 l 58 65 b 344 -12 58 65 150 -3 l 344 -181 l 383 -181 l 383 -12 b 664 100 575 -8 635 67 b 519 492 736 215 706 368 z "},"%":{"ha":1354,"x_min":0,"x_max":0,"o":"m 985 51 b 886 278 924 51 886 85 b 985 514 886 472 922 514 b 1082 278 1044 514 1082 472 b 985 51 1082 85 1047 51 z m 985 532 b 799 278 832 532 799 397 b 985 33 799 160 832 33 b 1171 278 1136 33 1171 160 b 985 532 1171 397 1136 532 z m 285 688 b 382 924 285 882 321 924 b 481 688 442 924 481 882 b 382 461 481 494 446 461 b 285 688 322 461 285 494 z m 568 688 b 382 942 568 807 535 942 b 196 688 229 942 196 807 b 382 443 196 569 229 443 b 568 688 535 443 568 569 z m 1036 978 l 963 978 l 329 0 l 403 0 z "},"&":{"ha":1094,"x_min":0,"x_max":0,"o":"m 414 1000 b 574 960 469 1021 533 1001 b 478 606 642 875 663 722 l 379 749 b 414 1000 313 847 329 968 z m 261 132 b 301 479 142 274 221 424 l 379 528 l 610 194 b 261 132 539 32 347 29 z m 1001 140 b 907 75 994 92 950 75 b 796 140 907 75 840 76 l 686 299 b 810 403 724 411 810 433 b 833 356 811 383 817 369 b 933 364 864 331 908 335 b 926 463 963 396 953 442 b 840 478 903 482 868 483 b 675 314 804 469 728 444 l 489 589 b 590 972 703 733 650 904 b 390 1029 549 1019 481 1044 b 299 646 235 1001 161 832 l 368 543 l 290 496 b 150 81 179 432 6 265 b 624 178 296 -106 575 19 l 704 57 b 878 -12 758 -24 878 -12 b 1019 140 942 -7 1018 39 z "},"'":{"ha":336,"x_min":0,"x_max":0,"o":"m 139 522 l 204 522 l 238 978 l 104 978 z "},"(":{"ha":444,"x_min":0,"x_max":0,"o":"m 428 1036 b 110 354 263 921 110 626 b 425 -285 110 81 261 -192 l 442 -268 b 233 350 226 -74 233 275 b 444 1021 233 424 226 763 z "},")":{"ha":446,"x_min":0,"x_max":0,"o":"m -4 1021 b 207 350 214 763 207 424 b -1 -268 207 275 214 -74 l 15 -285 b 331 354 179 -192 331 81 b 13 1036 331 626 178 921 z "},"*":{"ha":756,"x_min":0,"x_max":0,"o":"m 664 729 l 631 833 l 397 721 l 432 978 l 321 978 l 356 721 l 124 833 l 89 729 l 344 682 l 165 496 l 253 431 l 376 658 l 500 431 l 589 496 l 410 682 z "},"+":{"ha":993,"x_min":0,"x_max":0,"o":"m 913 478 l 542 478 l 542 860 l 449 860 l 449 478 l 78 478 l 78 383 l 449 383 l 449 0 l 542 0 l 542 383 l 913 383 z "},",":{"ha":315,"x_min":0,"x_max":0,"o":"m 108 -175 b 210 -79 169 -143 192 -107 b 222 129 247 -18 271 81 b 107 129 190 161 139 161 b 108 14 75 97 76 46 b 163 -10 125 -1 143 -7 b 100 -164 185 -12 193 -97 l 108 -175 z "},"-":{"ha":617,"x_min":0,"x_max":0,"o":"m 526 306 l 526 400 l 89 400 l 89 306 z "},".":{"ha":308,"x_min":0,"x_max":0,"o":"m 158 -7 b 240 75 203 -7 240 29 b 158 158 240 121 203 158 b 76 75 113 158 76 121 b 158 -7 76 29 113 -7 z "},"/":{"ha":572,"x_min":0,"x_max":0,"o":"m 546 1007 l 447 1007 l 19 -29 l 118 -29 z "},":":{"ha":314,"x_min":0,"x_max":0,"o":"m 158 429 b 242 513 203 429 242 467 b 158 596 242 558 203 596 b 75 513 111 596 75 558 b 158 429 75 467 111 429 z m 158 50 b 242 132 203 50 242 86 b 158 217 242 179 203 217 b 75 132 111 217 75 179 b 158 50 75 86 111 50 z "},";":{"ha":315,"x_min":0,"x_max":0,"o":"m 158 429 b 242 513 204 429 242 467 b 158 596 242 558 204 596 b 75 513 111 596 75 558 b 158 429 75 467 111 429 z m 103 -112 l 94 -101 b 157 53 188 -35 179 50 b 103 76 138 56 119 61 b 101 192 71 108 69 160 b 217 192 133 224 185 224 b 204 -17 265 143 242 44 b 103 -112 186 -44 164 -81 z "},"<":{"ha":833,"x_min":0,"x_max":0,"o":"m 200 369 l 768 663 l 768 760 l 64 399 l 64 339 l 768 -22 l 768 74 z "},"=":{"ha":851,"x_min":0,"x_max":0,"o":"m 788 485 l 788 569 l 78 569 l 78 485 z m 788 172 l 788 257 l 78 257 l 78 172 z "},">":{"ha":833,"x_min":0,"x_max":0,"o":"m 65 74 l 65 -22 l 769 339 l 769 399 l 65 760 l 65 663 l 633 369 z "},"?":{"ha":800,"x_min":0,"x_max":0,"o":"m 457 81 b 368 168 457 129 417 168 b 281 81 319 168 281 129 b 368 -7 281 32 319 -7 b 457 81 417 -7 457 32 z m 465 464 b 676 781 543 494 686 579 b 217 983 667 986 438 1082 b 110 867 150 954 117 894 b 117 792 103 843 100 815 b 219 772 140 760 188 749 b 238 875 251 796 260 842 b 192 904 225 892 211 901 b 228 968 174 906 169 946 b 528 775 346 1014 510 986 b 414 499 542 611 476 551 b 342 281 325 424 333 335 l 369 285 b 465 464 363 368 394 435 z "},"@":{"ha":1215,"x_min":0,"x_max":0,"o":"m 721 103 b 617 49 721 103 686 43 b 511 278 550 56 482 113 b 701 513 535 417 614 513 b 776 357 793 513 782 379 b 721 103 768 310 728 138 z m 729 839 b 56 247 400 851 75 636 b 575 -289 33 -176 374 -289 b 903 -189 804 -289 903 -189 l 892 -175 b 594 -253 874 -190 754 -265 b 185 274 101 -212 185 274 b 742 775 219 556 418 800 b 1088 338 1054 751 1104 500 b 864 31 1064 97 922 31 b 822 101 815 31 817 74 b 910 517 833 151 910 517 l 813 518 b 804 482 813 518 806 493 b 682 535 803 482 776 535 b 386 217 490 536 397 351 b 544 -12 376 103 431 -12 b 715 69 644 -12 701 49 b 800 -12 708 21 738 -12 b 1135 333 894 -12 1100 35 b 729 839 1174 650 968 829 z "},"A":{"ha":963,"x_min":0,"x_max":0,"o":"m 243 314 l 411 775 l 593 314 z m 935 18 b 821 131 896 21 867 19 b 479 978 821 131 649 569 l 464 978 l 232 346 b 24 18 111 25 76 19 l 24 0 l 333 0 l 333 18 b 239 296 140 13 201 185 l 599 296 l 647 175 b 618 18 679 97 693 18 l 618 0 l 935 0 z "},"B":{"ha":826,"x_min":0,"x_max":0,"o":"m 336 960 b 536 742 421 960 536 946 b 358 504 536 531 444 504 l 275 504 l 275 960 z m 751 249 b 454 501 751 483 544 501 b 686 740 482 501 686 524 b 329 978 686 967 522 978 l 51 978 l 51 965 b 132 814 113 965 132 900 l 132 167 b 51 13 132 72 111 13 l 51 0 l 329 0 b 751 249 569 0 751 7 z m 596 254 b 336 18 596 15 469 18 l 275 18 l 275 486 l 358 486 b 596 254 461 486 596 479 z "},"C":{"ha":932,"x_min":0,"x_max":0,"o":"m 838 288 b 538 6 819 76 650 6 b 233 489 397 6 233 63 b 538 972 233 908 393 972 b 838 690 650 972 799 919 l 856 690 l 872 906 b 538 990 785 976 681 990 b 56 489 250 990 56 801 b 538 -12 56 179 250 -12 b 872 74 686 -12 769 6 l 856 288 z "},"D":{"ha":994,"x_min":0,"x_max":0,"o":"m 744 486 b 360 18 744 25 510 18 l 299 18 l 299 960 l 360 960 b 744 486 513 960 744 935 z m 911 486 b 360 978 911 893 636 978 l 61 978 l 61 960 b 156 814 122 960 156 900 l 156 165 b 61 18 156 71 121 18 l 61 0 l 360 0 b 911 486 636 0 911 67 z "},"E":{"ha":828,"x_min":0,"x_max":0,"o":"m 724 289 b 325 18 694 11 449 18 l 261 18 l 261 485 l 351 485 b 543 344 386 485 536 483 l 561 344 l 561 643 l 543 643 b 351 503 536 503 389 503 l 261 503 l 261 960 l 336 960 b 706 728 449 960 689 957 l 724 728 l 724 978 l 43 978 l 43 960 b 118 829 104 960 118 915 l 118 163 b 43 18 118 68 101 18 l 43 0 l 742 0 l 742 289 z "},"F":{"ha":749,"x_min":0,"x_max":0,"o":"m 40 978 l 40 960 b 115 829 101 960 115 915 l 115 163 b 40 18 115 68 100 18 l 40 0 l 364 0 l 364 18 b 258 168 301 18 258 32 l 258 483 l 347 483 b 546 344 383 483 533 486 l 564 344 l 564 643 l 546 643 b 347 503 533 501 385 503 l 258 503 l 258 960 l 332 960 b 710 728 442 960 685 967 l 728 728 l 728 978 z "},"G":{"ha":1001,"x_min":0,"x_max":0,"o":"m 631 389 l 631 371 b 742 157 722 371 742 367 b 513 6 742 42 675 6 b 233 489 357 6 233 107 b 513 972 233 871 354 972 b 822 686 678 972 801 918 l 851 686 l 864 911 b 513 990 778 968 681 990 b 54 489 213 990 54 765 b 513 -12 54 213 213 -12 b 865 46 661 -12 779 13 b 957 371 865 357 876 371 l 957 389 z "},"H":{"ha":835,"x_min":0,"x_max":0,"o":"m 754 785 b 822 960 754 919 757 947 l 822 978 l 576 978 l 576 960 b 617 785 615 947 617 919 l 617 481 l 236 481 l 236 785 b 276 960 236 919 238 947 l 276 978 l 29 978 l 29 960 b 99 785 96 947 99 910 l 99 189 b 29 18 99 56 103 38 l 29 0 l 276 0 l 276 18 b 236 189 238 32 236 47 l 236 457 l 617 457 l 617 189 b 576 18 617 65 614 32 l 576 0 l 822 0 l 822 18 b 754 189 750 38 754 75 l 754 785 z "},"I":{"ha":478,"x_min":0,"x_max":0,"o":"m 72 978 l 72 960 b 169 850 133 960 169 936 l 169 149 b 72 18 169 54 132 18 l 72 0 l 410 0 l 410 18 b 313 149 351 18 313 54 l 313 850 b 410 960 313 936 350 960 l 410 978 z "},"J":{"ha":549,"x_min":0,"x_max":0,"o":"m 131 978 l 131 961 b 233 663 232 961 233 928 l 233 235 b 0 -215 233 -67 119 -172 l 6 -232 b 376 253 232 -199 376 -68 l 376 832 b 488 961 376 922 425 961 l 488 978 z "},"K":{"ha":1010,"x_min":0,"x_max":0,"o":"m 990 18 b 807 96 971 18 871 14 b 474 542 807 96 636 325 b 951 960 774 926 850 960 l 951 978 l 569 978 l 569 960 b 536 676 776 957 615 769 l 361 464 b 515 251 361 464 436 365 b 842 0 663 42 694 0 l 990 0 z m 57 978 l 57 960 b 146 850 117 960 146 936 l 146 146 b 57 18 146 51 115 18 l 57 0 l 381 0 l 381 18 b 288 146 321 18 288 51 l 288 850 b 396 960 288 951 335 960 l 396 978 z "},"L":{"ha":847,"x_min":0,"x_max":0,"o":"m 747 301 b 339 18 724 18 488 17 l 289 18 l 289 836 b 392 960 289 936 332 960 l 392 978 l 61 978 l 61 960 b 149 843 121 960 149 928 l 149 165 b 72 18 149 71 132 18 l 72 0 l 765 0 l 765 301 z "},"M":{"ha":1253,"x_min":0,"x_max":0,"o":"m 1108 163 l 1108 838 b 1215 960 1108 932 1156 960 l 1215 978 l 969 978 l 693 192 l 332 978 l 56 978 l 56 960 b 211 868 89 957 158 958 l 211 346 b 14 18 211 189 186 18 l 14 0 l 407 0 l 407 18 b 229 346 253 18 229 185 l 229 838 l 617 -12 l 633 -12 l 969 925 l 969 163 b 869 18 969 50 928 18 l 869 0 l 1225 0 l 1225 18 b 1108 163 1165 18 1108 50 z "},"N":{"ha":1121,"x_min":0,"x_max":0,"o":"m 689 978 l 689 961 b 871 632 872 961 871 761 l 871 203 l 271 978 l 14 978 l 14 961 b 179 856 50 958 90 967 l 236 782 l 236 347 b 35 18 236 222 236 18 l 35 0 l 436 0 l 436 18 b 254 347 254 18 254 225 l 254 761 l 844 0 l 889 0 l 889 632 b 1086 961 889 761 885 961 l 1086 978 z "},"O":{"ha":1025,"x_min":0,"x_max":0,"o":"m 799 482 b 508 6 799 100 672 6 b 217 482 343 6 217 100 b 508 972 217 863 343 972 b 799 482 672 972 799 863 z m 960 482 b 508 990 960 757 814 990 b 57 482 203 990 57 757 b 508 -12 57 206 203 -12 b 960 482 814 -12 960 206 z "},"P":{"ha":806,"x_min":0,"x_max":0,"o":"m 272 436 l 272 960 l 297 960 b 606 697 460 960 606 961 b 297 436 606 440 467 436 z m 272 418 l 297 418 b 757 697 574 418 757 451 b 297 978 757 944 574 978 l 46 978 l 46 960 b 135 829 115 960 135 925 l 135 186 b 43 18 135 54 111 18 l 43 0 l 410 0 l 410 18 b 272 190 322 18 272 24 z "},"Q":{"ha":1019,"x_min":0,"x_max":0,"o":"m 799 482 b 508 6 799 100 672 6 b 217 482 343 6 217 100 b 508 972 217 863 343 972 b 799 482 672 972 799 863 z m 960 482 b 508 990 960 757 814 990 b 57 482 203 990 57 757 b 508 -12 57 206 203 -12 b 960 482 814 -12 960 206 z m 567 -104 b 132 -174 567 -104 335 -6 l 146 -189 b 353 -156 178 -167 264 -119 l 460 -203 b 883 -243 683 -300 776 -326 l 988 -157 l 975 -143 b 776 -178 940 -168 881 -212 z "},"R":{"ha":893,"x_min":0,"x_max":0,"o":"m 582 713 b 306 467 582 465 463 467 l 263 467 l 263 960 l 306 960 b 582 713 454 960 582 965 z m 885 18 b 736 140 849 21 761 35 b 476 458 664 444 568 454 b 735 713 626 468 735 524 b 306 978 735 944 582 978 l 40 978 l 40 960 b 126 854 101 960 126 940 l 126 163 b 40 18 126 46 100 18 l 40 0 l 351 0 l 351 18 b 263 144 293 18 263 49 l 263 449 l 328 449 b 543 303 364 449 504 449 b 779 0 622 1 601 0 l 885 0 z "},"S":{"ha":783,"x_min":0,"x_max":0,"o":"m 665 101 b 521 492 738 215 707 369 l 292 643 b 346 972 82 779 196 972 b 644 692 578 972 632 828 l 664 692 l 664 925 b 346 990 664 925 547 990 b 85 882 153 990 85 882 b 236 504 -22 718 104 592 l 467 356 b 390 6 629 240 601 6 b 76 332 154 6 92 163 l 60 332 l 60 65 b 390 -12 60 65 164 -12 b 665 101 606 -12 665 101 z "},"T":{"ha":906,"x_min":0,"x_max":0,"o":"m 26 978 l 26 733 l 44 733 b 300 960 50 957 257 960 l 382 960 l 382 135 b 282 18 382 43 340 18 l 282 0 l 621 0 l 621 18 b 519 135 563 18 519 43 l 519 960 l 601 960 b 858 733 621 960 853 957 l 876 733 l 876 978 z "},"U":{"ha":994,"x_min":0,"x_max":0,"o":"m 447 -12 b 785 328 618 -12 785 79 l 785 706 b 963 960 785 836 781 960 l 963 978 l 601 978 l 601 960 b 767 706 764 960 767 836 l 767 328 b 515 50 767 149 657 50 b 263 321 365 50 263 149 l 263 838 b 372 960 263 947 313 960 l 372 978 l 26 978 l 26 960 b 125 839 88 960 125 933 l 125 333 b 447 -12 125 107 267 -12 z "},"V":{"ha":1032,"x_min":0,"x_max":0,"o":"m 654 978 l 654 960 b 729 631 854 960 772 760 l 557 174 l 310 836 b 393 960 307 846 278 960 l 393 978 l 19 978 l 19 960 b 151 858 67 960 111 957 b 488 0 151 858 317 408 l 507 0 l 746 628 b 999 960 872 960 907 960 l 999 978 z "},"W":{"ha":1467,"x_min":0,"x_max":0,"o":"m 1090 978 l 1090 960 b 1168 632 1285 960 1208 765 l 1011 186 l 783 840 b 867 960 781 850 743 960 l 867 978 l 493 978 l 493 960 b 626 851 540 960 588 951 l 699 644 l 546 190 l 307 840 b 392 960 304 850 269 960 l 392 978 l 17 978 l 17 960 b 150 851 64 960 111 951 l 478 0 l 499 0 l 708 618 l 939 0 l 958 0 l 1186 628 b 1443 960 1300 926 1342 960 l 1443 978 z "},"X":{"ha":1015,"x_min":0,"x_max":0,"o":"m 824 140 b 556 551 824 140 622 456 l 629 661 b 981 960 829 961 896 960 l 981 978 l 594 978 l 594 960 b 614 675 781 960 689 811 l 543 569 l 397 799 b 413 960 318 922 358 960 l 413 978 l 31 978 l 31 960 b 201 835 81 960 119 954 b 464 446 201 835 360 599 l 385 329 b 43 17 171 14 115 17 l 43 0 l 401 0 l 401 17 b 400 314 218 17 315 153 l 476 428 l 636 174 b 633 17 660 136 728 29 l 633 0 l 990 0 l 990 17 b 824 140 935 19 899 25 z "},"Y":{"ha":961,"x_min":0,"x_max":0,"o":"m 585 978 l 585 960 b 647 675 772 960 694 771 l 542 458 l 338 804 b 369 961 243 964 331 961 l 369 978 l 13 978 l 13 961 b 158 853 58 958 96 958 b 419 400 158 853 215 761 l 419 156 b 315 18 419 43 374 18 l 315 0 l 654 0 l 654 18 b 550 156 596 18 550 43 l 550 436 l 656 654 b 942 960 810 960 882 960 l 942 978 z "},"Z":{"ha":764,"x_min":0,"x_max":0,"o":"m 221 18 l 715 978 l 81 978 l 56 697 l 81 697 b 493 960 119 896 235 960 l 561 960 l 33 0 l 675 0 l 710 324 l 686 324 b 253 18 650 129 544 18 z "},"[":{"ha":428,"x_min":0,"x_max":0,"o":"m 157 1021 l 157 -203 l 407 -203 l 407 -185 b 260 -79 335 -185 260 -181 l 260 883 b 407 1003 260 1001 332 1003 l 407 1021 z "},"\\":{"ha":576,"x_min":0,"x_max":0,"o":"m 450 -24 l 546 -24 l 117 1018 l 21 1018 z "},"]":{"ha":429,"x_min":0,"x_max":0,"o":"m 15 1021 l 15 1003 b 163 883 90 1003 163 1001 l 163 -79 b 15 -185 163 -181 88 -185 l 15 -203 l 265 -203 l 265 1021 z "},"^":{"ha":783,"x_min":0,"x_max":0,"o":"m 403 978 l 371 978 l 124 522 l 165 522 l 386 808 l 611 522 l 653 522 z "},"_":{"ha":778,"x_min":0,"x_max":0,"o":"m 0 -106 l 0 -169 l 778 -169 l 778 -106 z "},"`":{"ha":453,"x_min":0,"x_max":0,"o":"m 118 1000 l 6 965 l 332 774 l 364 774 z "},"a":{"ha":674,"x_min":0,"x_max":0,"o":"m 413 343 b 413 136 413 343 413 138 b 290 50 399 103 364 50 b 181 160 206 50 181 119 b 413 343 181 243 251 304 z m 600 53 b 538 140 536 53 538 140 l 538 376 b 344 654 538 542 496 654 b 217 628 344 654 276 658 b 108 525 142 588 118 546 b 115 457 97 506 100 478 b 204 444 136 428 176 422 b 218 535 233 465 239 507 b 175 560 207 550 192 557 b 229 614 167 561 175 588 b 413 442 340 665 413 585 l 413 361 b 57 131 175 300 57 269 b 215 -12 57 -12 215 -12 b 413 104 313 -12 393 38 b 531 -12 421 -15 531 -12 b 658 82 603 -12 650 40 l 642 89 b 600 53 632 53 600 53 z "},"b":{"ha":764,"x_min":0,"x_max":0,"o":"m 564 296 b 381 6 564 75 474 6 b 211 218 288 6 211 74 l 211 428 b 371 608 211 535 269 608 b 564 296 492 608 564 514 z m 710 315 b 418 654 710 506 603 654 b 211 543 347 654 253 618 l 211 1025 l 19 988 l 19 969 b 90 892 78 958 90 939 l 90 7 b 190 57 90 -15 153 18 b 385 -12 236 14 303 -12 b 710 315 569 -12 710 101 z "},"c":{"ha":668,"x_min":0,"x_max":0,"o":"m 607 178 b 394 64 582 121 496 56 b 192 335 296 74 192 150 b 400 636 192 594 344 636 b 518 594 493 636 531 597 b 479 565 504 593 489 582 b 503 478 461 536 471 496 b 592 501 532 460 574 472 b 590 569 604 524 601 550 b 400 654 578 592 536 654 b 63 319 188 654 63 490 b 365 -12 63 115 210 -12 b 622 171 536 -12 607 101 z "},"d":{"ha":757,"x_min":0,"x_max":0,"o":"m 549 192 b 388 28 549 94 479 28 b 196 349 267 28 196 128 b 381 636 196 571 289 636 b 549 435 465 636 549 569 z m 739 32 b 668 108 683 32 668 40 l 668 1025 l 478 988 l 478 969 b 549 892 535 958 549 940 l 549 603 b 378 654 503 635 446 654 b 51 329 192 654 51 544 b 344 -12 51 135 158 -12 b 549 90 413 -12 506 19 l 549 14 b 588 -11 549 14 549 -18 l 739 14 z "},"e":{"ha":682,"x_min":0,"x_max":0,"o":"m 181 351 b 349 636 181 526 269 636 b 506 351 415 636 506 554 z m 586 171 b 379 60 561 103 463 51 b 181 333 269 71 186 146 l 625 333 b 353 654 625 551 514 654 b 50 315 181 654 50 521 b 347 -12 50 132 174 -12 b 603 164 511 -12 588 99 z "},"f":{"ha":418,"x_min":0,"x_max":0,"o":"m 468 904 b 458 981 478 928 472 961 b 331 1033 444 999 394 1033 b 107 642 172 1033 107 944 l 17 642 l 18 624 l 107 624 l 107 118 b 53 17 107 51 106 28 l 53 0 l 296 0 l 296 17 b 229 118 246 26 229 46 l 229 624 l 381 624 l 385 642 l 229 642 b 332 1015 229 947 265 1015 b 381 989 372 1015 394 993 b 344 956 365 986 351 974 b 381 868 329 921 346 882 b 468 904 414 854 454 869 z "},"g":{"ha":753,"x_min":0,"x_max":0,"o":"m 490 442 b 350 246 490 286 414 246 b 211 442 289 246 211 286 b 350 636 211 597 281 636 b 490 442 410 636 490 597 z m 726 554 b 736 643 753 576 757 615 b 672 667 721 661 694 668 b 547 589 639 663 583 643 b 350 654 501 629 433 654 b 90 442 190 654 90 554 b 200 260 90 368 126 292 b 76 106 71 222 76 106 b 139 -1 76 56 99 18 b 38 -250 47 -53 -14 -156 b 503 -269 94 -356 313 -376 b 653 -79 649 -187 653 -79 b 414 97 678 103 510 97 l 247 97 b 218 251 83 97 153 240 b 350 228 254 236 296 228 b 611 442 513 228 611 329 b 560 578 611 492 594 543 b 625 608 585 614 628 619 b 638 563 621 593 626 576 b 726 554 658 535 699 532 z m 131 -217 b 157 -11 133 -219 25 -99 b 275 -29 206 -31 260 -29 l 467 -29 b 592 -100 586 -29 592 -100 b 493 -254 592 -100 601 -187 b 131 -217 369 -331 196 -294 z "},"h":{"ha":704,"x_min":0,"x_max":0,"o":"m 678 17 b 621 129 629 29 621 53 l 621 431 b 429 654 621 597 543 654 b 214 497 339 654 235 576 l 214 1025 l 22 983 l 22 965 b 92 890 79 956 92 939 l 92 129 b 36 18 92 58 89 33 l 36 0 l 271 0 l 271 18 b 214 129 221 31 214 53 l 214 472 b 357 583 236 519 288 583 b 501 425 454 583 501 525 l 501 129 b 446 17 501 58 499 32 l 446 0 l 678 0 l 678 17 z "},"i":{"ha":340,"x_min":0,"x_max":0,"o":"m 157 769 b 228 840 196 769 228 801 b 157 911 228 881 196 911 b 86 840 117 911 86 881 b 157 769 86 801 117 769 z m 288 18 b 231 129 238 31 231 51 l 231 654 l 40 614 l 40 597 b 110 514 99 582 110 563 l 110 129 b 54 18 110 58 107 33 l 54 0 l 288 0 z "},"j":{"ha":335,"x_min":0,"x_max":0,"o":"m 157 769 b 228 840 196 769 228 801 b 157 913 228 881 196 913 b 86 840 118 913 86 881 b 157 769 86 801 118 769 z m 110 38 b -3 -300 110 -11 110 -265 l -3 -317 b 231 69 135 -282 231 -193 l 231 654 l 40 614 l 40 597 b 110 508 100 582 110 556 z "},"k":{"ha":710,"x_min":0,"x_max":0,"o":"m 693 18 b 576 74 661 18 618 22 b 338 363 576 74 440 217 b 706 624 563 608 642 622 l 706 642 l 393 642 l 393 624 b 372 433 578 626 372 433 l 242 299 b 347 164 242 299 325 193 b 569 0 447 26 474 0 l 693 0 z m 261 18 b 204 128 211 31 204 51 l 204 1025 l 13 988 l 13 969 b 82 890 69 958 82 939 l 82 128 b 26 18 82 57 79 33 l 26 0 l 261 0 z "},"l":{"ha":319,"x_min":0,"x_max":0,"o":"m 279 18 b 224 128 231 31 224 51 l 224 1025 l 32 988 l 32 969 b 101 890 89 958 101 939 l 101 128 b 46 18 101 57 99 33 l 46 0 l 279 0 l 279 18 z "},"m":{"ha":1038,"x_min":0,"x_max":0,"o":"m 1014 17 b 957 129 965 29 957 53 l 957 432 b 775 654 957 600 889 654 b 578 506 686 654 603 588 b 400 654 560 610 497 654 b 204 511 313 654 235 590 l 204 654 l 13 614 l 13 597 b 82 510 71 582 82 558 l 82 128 b 28 18 82 57 81 33 l 28 0 l 261 0 l 261 18 b 204 128 211 31 204 51 l 204 465 b 335 585 214 513 265 585 b 461 428 424 585 461 528 l 461 129 b 406 17 461 58 458 32 l 406 0 l 639 0 l 639 17 b 582 129 589 29 582 53 l 582 429 b 582 463 582 442 582 453 b 710 585 582 514 640 585 b 836 428 799 585 836 528 l 836 129 b 781 17 836 58 833 32 l 781 0 l 1014 0 l 1014 17 z "},"n":{"ha":703,"x_min":0,"x_max":0,"o":"m 667 17 b 610 129 618 29 610 53 l 610 432 b 418 654 610 600 531 654 b 206 508 331 654 235 589 l 206 654 l 14 614 l 14 597 b 83 515 72 582 83 564 l 83 128 b 29 18 83 57 82 33 l 29 0 l 263 0 l 263 18 b 206 128 213 31 206 51 l 206 465 b 347 585 217 515 275 585 b 489 428 439 585 489 522 l 489 129 b 433 17 489 58 486 32 l 433 0 l 667 0 l 667 17 z "},"o":{"ha":753,"x_min":0,"x_max":0,"o":"m 553 321 b 376 6 553 69 482 6 b 197 321 269 6 197 69 b 376 636 197 572 269 636 b 553 321 482 636 553 572 z m 696 321 b 376 654 696 504 589 654 b 56 321 165 654 56 504 b 376 -12 56 139 165 -12 b 696 321 589 -12 696 139 z "},"p":{"ha":779,"x_min":0,"x_max":0,"o":"m 567 296 b 383 6 567 72 475 6 b 214 189 296 6 222 65 l 214 450 b 374 613 222 546 281 613 b 567 296 493 613 567 515 z m 713 315 b 421 654 713 507 606 654 b 214 546 350 654 257 619 l 214 654 l 24 614 l 24 597 b 93 524 81 586 93 571 l 93 -244 b 38 -350 93 -315 90 -335 l 38 -368 l 271 -368 l 271 -350 b 214 -244 222 -337 214 -322 l 214 40 b 388 -12 258 7 317 -12 b 713 315 572 -12 713 99 z "},"q":{"ha":764,"x_min":0,"x_max":0,"o":"m 544 176 b 390 21 540 83 479 21 b 201 349 269 21 201 129 b 385 636 201 572 292 636 b 544 444 467 636 540 575 z m 724 -350 b 667 -246 674 -337 667 -322 l 667 639 b 568 597 667 660 603 636 b 389 654 522 633 461 654 b 64 329 204 654 64 546 b 356 -12 64 136 171 -12 b 544 69 418 -12 499 14 l 544 -246 b 490 -350 544 -317 542 -335 l 490 -368 l 724 -368 z "},"r":{"ha":506,"x_min":0,"x_max":0,"o":"m 397 650 b 211 508 342 643 263 603 l 211 654 l 19 614 l 19 597 b 89 514 76 582 89 563 l 89 129 b 33 18 89 57 86 33 l 33 0 l 268 0 l 268 18 b 211 129 218 31 211 51 l 211 475 b 343 578 254 568 347 601 b 358 525 339 560 346 540 b 467 515 388 492 435 489 b 476 624 500 543 504 590 b 397 650 457 646 422 653 z "},"s":{"ha":579,"x_min":0,"x_max":0,"o":"m 486 56 b 388 342 553 151 513 264 l 247 429 b 268 636 126 506 136 636 b 478 440 429 636 468 522 l 494 440 l 494 610 b 268 654 494 610 428 654 b 85 575 126 654 85 575 b 193 307 29 479 60 396 l 333 222 b 310 6 439 153 457 6 b 85 232 129 6 94 140 l 67 232 l 67 43 b 310 -12 67 43 142 -12 b 486 56 439 -12 486 56 z "},"t":{"ha":439,"x_min":0,"x_max":0,"o":"m 408 114 b 324 56 397 85 364 56 b 218 204 258 56 218 93 l 218 624 l 379 624 l 383 642 l 218 642 l 218 858 l 97 839 l 97 642 l 24 642 l 26 624 l 97 624 l 97 200 b 260 -12 97 32 158 -12 b 422 107 340 -12 403 46 l 408 114 z "},"u":{"ha":725,"x_min":0,"x_max":0,"o":"m 700 33 b 629 115 642 40 629 49 l 629 654 l 443 628 l 443 611 b 508 513 511 607 508 597 l 508 163 b 364 56 483 104 433 56 b 221 201 283 56 221 96 l 221 654 l 24 628 l 24 611 b 101 510 103 606 101 599 l 101 197 b 300 -12 101 24 200 -12 b 508 128 393 -12 483 54 l 508 10 b 542 -11 508 10 508 -18 l 700 15 l 700 33 z "},"v":{"ha":714,"x_min":0,"x_max":0,"o":"m 446 642 l 446 624 b 524 439 597 624 524 439 l 417 151 l 244 528 b 288 624 244 528 194 624 l 288 642 l -1 642 l -1 624 b 96 554 22 622 61 624 b 360 -12 96 554 114 521 l 374 -12 l 546 446 b 714 624 619 622 661 624 l 714 642 z "},"w":{"ha":1040,"x_min":0,"x_max":0,"o":"m 783 642 l 783 624 b 864 460 922 624 864 460 l 763 158 l 601 538 b 646 624 601 538 557 624 l 646 642 l 379 642 l 379 624 b 464 551 400 622 433 617 b 511 440 464 551 469 540 l 413 158 l 250 540 b 289 624 250 540 211 624 l 289 642 l 22 642 l 22 624 b 113 551 43 622 83 617 b 356 -12 113 551 128 521 l 371 -12 l 522 417 l 707 -12 l 721 -12 l 882 453 b 1029 624 940 618 994 624 l 1029 642 z "},"x":{"ha":719,"x_min":0,"x_max":0,"o":"m 582 89 l 394 368 l 442 433 b 696 625 583 632 647 624 l 696 642 l 400 642 l 400 625 b 429 447 547 625 475 519 l 385 385 l 288 528 b 299 625 235 604 265 625 l 299 642 l 17 642 l 17 625 b 128 557 53 624 75 622 l 315 282 l 263 208 b 18 18 124 11 58 18 l 18 0 l 300 0 l 300 18 b 276 194 163 18 215 103 l 326 267 l 429 115 b 429 18 429 115 501 18 l 429 0 l 710 0 l 710 18 b 582 89 686 19 631 18 z "},"y":{"ha":739,"x_min":0,"x_max":0,"o":"m 444 642 l 444 625 b 518 407 606 626 518 407 l 426 154 l 254 524 b 296 625 254 524 206 625 l 296 642 l 8 642 l 8 625 b 106 554 29 624 78 618 b 365 -6 106 554 200 360 l 303 -182 b 249 -233 283 -233 254 -253 b 211 -189 243 -215 231 -197 b 114 -226 175 -172 132 -189 b 151 -324 99 -264 114 -307 b 235 -314 178 -336 215 -329 b 319 -185 254 -297 292 -265 l 535 403 b 713 625 617 613 664 625 l 713 642 z "},"z":{"ha":600,"x_min":0,"x_max":0,"o":"m 540 642 l 68 642 l 61 458 l 79 458 b 400 624 101 589 214 624 l 40 0 l 513 0 l 525 211 l 507 211 b 196 17 488 86 404 17 z "},"{":{"ha":435,"x_min":0,"x_max":0,"o":"m 372 -214 b 275 4 315 -194 275 -140 l 275 204 b 119 389 275 356 183 389 b 275 589 183 389 275 436 l 275 789 b 372 1007 275 933 315 986 l 371 1021 b 178 789 261 1006 178 949 l 178 626 b 68 396 178 407 122 413 l 68 381 b 178 167 122 365 178 372 l 178 4 b 371 -228 178 -156 261 -212 l 372 -214 z "},"|":{"ha":281,"x_min":0,"x_max":0,"o":"m 101 -228 l 182 -228 l 182 1021 l 101 1021 z "},"}":{"ha":443,"x_min":0,"x_max":0,"o":"m 68 -228 b 261 4 178 -212 261 -156 l 261 167 b 371 381 261 372 317 365 l 371 396 b 261 626 317 413 261 407 l 261 789 b 68 1021 261 949 178 1006 l 67 1007 b 164 789 124 986 164 933 l 164 589 b 319 389 164 436 256 389 b 164 204 256 389 164 356 l 164 4 b 67 -214 164 -140 124 -194 z "},"~":{"ha":803,"x_min":0,"x_max":0,"o":"m 468 294 b 724 446 468 294 639 233 l 710 451 b 504 388 676 375 549 369 l 344 447 b 86 297 344 447 171 508 l 100 292 b 308 354 138 372 263 371 z "},"":{"ha":0,"x_min":0,"x_max":0,"o":""}," ":{"ha":347,"x_min":0,"x_max":0,"o":""},"¡":{"ha":397,"x_min":0,"x_max":0,"o":"m 169 518 l 138 -243 l 265 -243 l 235 518 z m 203 790 b 122 710 158 790 122 754 b 203 629 122 664 158 629 b 285 710 249 629 285 664 b 203 790 285 754 249 790 z "},"¢":{"ha":700,"x_min":0,"x_max":0,"o":"m 233 336 b 415 635 233 561 349 624 l 415 67 b 233 336 324 86 233 163 z m 649 178 b 442 64 625 122 542 58 l 442 636 b 560 596 533 636 574 596 b 521 567 546 592 531 582 b 544 478 503 536 513 497 b 633 503 574 460 615 474 b 632 571 646 524 643 551 b 442 654 619 593 578 654 l 442 824 l 415 824 l 415 654 b 104 321 218 642 104 483 b 415 -12 104 119 235 -10 l 415 -164 l 442 -164 l 442 -12 b 664 171 588 0 649 106 z "},"£":{"ha":896,"x_min":0,"x_max":0,"o":"m 400 119 b 193 6 361 47 286 6 b 67 93 175 6 90 7 b 268 196 50 156 131 254 b 400 119 308 179 351 153 z m 344 236 b 49 90 92 329 28 154 b 194 -12 79 -7 181 -12 b 443 93 292 -12 379 6 b 682 -11 535 31 611 -17 b 832 178 710 -8 833 29 l 813 181 b 626 108 806 107 710 78 b 497 169 626 108 543 139 b 483 440 532 242 544 344 l 440 503 l 675 503 l 675 522 l 428 522 b 574 994 200 907 365 1063 b 622 944 617 981 642 943 b 568 928 603 946 583 943 b 563 817 536 899 532 850 b 672 811 592 786 640 783 b 696 890 694 832 704 865 b 581 1011 686 922 663 975 b 271 522 388 1096 67 932 l 146 522 l 146 503 l 279 503 b 354 386 304 464 332 421 b 417 201 403 313 422 260 b 344 236 399 215 344 236 z "},"¤":{"ha":796,"x_min":0,"x_max":0,"o":"m 217 646 b 383 715 261 690 319 715 b 550 646 447 715 507 690 b 619 479 593 601 619 543 b 550 313 619 415 593 356 b 383 243 507 269 447 243 b 217 313 319 243 261 269 b 147 479 172 357 147 417 b 217 646 147 542 172 601 z m 636 285 b 703 479 679 339 703 407 b 636 675 703 551 679 621 l 742 781 l 685 838 l 579 733 b 383 800 525 776 456 800 b 188 733 311 800 243 776 l 83 838 l 25 781 l 131 675 b 64 479 88 621 64 551 b 131 285 64 407 88 339 l 25 179 l 83 121 l 188 226 b 383 160 243 183 311 160 b 579 226 456 160 525 183 l 685 121 l 742 179 z "},"¥":{"ha":861,"x_min":0,"x_max":0,"o":"m 538 960 b 599 674 725 960 646 769 l 493 460 l 290 803 b 322 961 196 963 283 961 l 322 978 l -35 978 l -35 961 b 111 851 11 958 49 958 b 347 443 111 851 163 768 l 106 443 l 106 422 l 358 422 l 372 399 l 372 328 l 106 328 l 106 307 l 372 307 l 372 156 b 268 18 372 43 326 18 l 268 0 l 607 0 l 607 18 b 503 156 549 18 503 43 l 503 307 l 742 307 l 742 328 l 503 328 l 503 422 l 742 422 l 742 443 l 506 443 l 608 656 b 894 960 763 960 835 960 l 894 978 l 538 978 z "},"¦":{"ha":278,"x_min":0,"x_max":0,"o":"m 181 1021 l 99 1021 l 99 499 l 181 499 z m 181 257 l 99 257 l 99 -267 l 181 -267 z "},"§":{"ha":739,"x_min":0,"x_max":0,"o":"m 261 561 b 297 535 265 557 279 547 b 468 419 321 518 413 458 b 490 81 578 344 693 219 b 442 115 483 86 465 100 b 276 225 418 132 329 188 b 261 561 167 300 56 426 z m 506 67 b 524 533 756 226 685 425 l 347 651 b 228 851 246 725 218 776 b 432 979 239 949 325 989 b 500 938 482 974 514 939 b 460 913 482 938 471 928 b 476 817 438 882 446 839 b 575 833 510 794 553 801 b 578 906 589 854 588 885 b 424 999 560 944 497 993 b 146 806 340 1004 168 999 b 244 575 135 706 171 640 b 221 111 -8 411 61 221 l 397 -8 b 511 -207 499 -81 521 -131 b 317 -335 500 -303 410 -346 b 238 -294 267 -328 222 -299 b 285 -268 254 -292 272 -283 b 267 -171 307 -237 299 -193 b 171 -189 235 -150 192 -157 b 165 -261 156 -210 156 -240 b 319 -353 183 -299 246 -347 b 604 -161 400 -360 582 -354 b 506 67 617 -61 572 7 z "},"¨":{"ha":325,"x_min":0,"x_max":0,"o":"m 210 897 b 274 833 210 861 238 833 b 339 897 308 833 339 861 b 274 963 339 933 308 963 b 210 897 238 963 210 933 z m -12 897 b 51 833 -12 861 17 833 b 117 897 88 833 117 861 b 51 963 117 933 88 963 b -12 897 17 963 -12 933 z "},"©":{"ha":1107,"x_min":0,"x_max":0,"o":"m 721 382 b 557 233 710 244 610 233 b 386 497 492 233 386 257 b 557 761 386 733 485 761 b 721 613 610 761 710 750 l 736 613 l 743 732 b 557 779 694 772 638 779 b 285 497 394 779 285 674 b 557 215 285 324 394 215 b 743 264 640 215 685 225 l 736 382 z m 553 71 b 113 511 311 71 113 268 b 553 953 113 753 311 953 b 992 511 793 953 992 753 b 553 71 992 268 793 71 z m 553 1021 b 42 511 269 1021 42 793 b 553 1 42 229 269 1 b 1064 511 835 1 1064 229 b 553 1021 1064 793 835 1021 z "},"ª":{"ha":413,"x_min":0,"x_max":0,"o":"m 214 808 b 214 726 214 808 214 726 b 150 663 214 704 189 663 b 92 718 106 663 92 697 b 214 808 92 763 129 789 z m 331 682 b 311 664 326 663 311 664 b 279 708 279 663 279 708 l 279 832 b 179 978 279 918 258 978 b 110 964 179 978 138 978 b 54 910 74 946 60 922 b 58 875 50 899 50 885 b 104 868 69 860 90 857 b 113 915 118 879 122 900 b 89 928 107 922 99 928 b 117 951 85 928 90 939 b 214 867 174 978 214 942 l 214 826 b 28 703 89 794 28 776 b 111 629 28 628 111 629 b 214 683 161 629 206 650 b 276 629 214 629 276 629 b 346 676 317 629 342 654 z "},"«":{"ha":847,"x_min":0,"x_max":0,"o":"m 725 701 l 404 369 l 725 46 l 725 82 l 519 369 l 725 665 z m 442 701 l 121 369 l 442 46 l 442 82 l 235 369 l 442 665 z "},"¬":{"ha":894,"x_min":0,"x_max":0,"o":"m 57 546 l 57 461 l 742 461 l 742 117 l 828 117 l 828 546 z "},"­":{"ha":617,"x_min":0,"x_max":0,"o":"m 526 306 l 526 400 l 89 400 l 89 306 z "},"®":{"ha":1111,"x_min":0,"x_max":0,"o":"m 501 503 l 478 503 l 478 761 l 501 761 b 653 635 583 761 653 761 b 501 503 653 501 588 503 z m 736 319 b 601 493 708 478 642 494 b 736 635 675 499 736 531 b 501 779 736 761 653 779 l 357 779 l 357 761 b 404 708 390 761 404 757 l 404 340 b 357 261 404 276 390 261 l 357 243 l 526 243 l 526 261 b 478 331 494 261 478 278 l 478 485 l 514 485 b 632 410 514 485 613 485 b 757 243 676 244 660 244 l 818 243 l 818 261 b 736 319 799 261 747 263 z m 554 1021 b 43 511 271 1021 43 793 b 554 1 43 229 271 1 b 1065 511 836 1 1065 229 b 554 1021 1065 793 836 1021 z m 554 72 b 114 511 311 72 114 269 b 554 951 114 754 311 951 b 993 511 794 951 993 754 b 554 72 993 269 794 72 z "},"¯":{"ha":500,"x_min":0,"x_max":0,"o":"m 524 829 l 524 900 l -22 900 l -22 829 z "},"°":{"ha":529,"x_min":0,"x_max":0,"o":"m 124 843 b 261 978 124 917 185 978 b 396 843 335 978 396 917 b 261 708 396 768 335 708 b 124 843 185 708 124 768 z m 79 843 b 260 664 79 744 161 664 b 440 843 358 664 440 744 b 260 1024 440 943 358 1024 b 79 843 161 1024 79 943 z "},"±":{"ha":844,"x_min":0,"x_max":0,"o":"m 460 511 l 460 743 l 374 743 l 374 511 l 57 511 l 57 425 l 374 425 l 374 194 l 460 194 l 460 425 l 778 425 l 778 511 z m 57 0 l 778 0 l 778 85 l 57 85 z "},"²":{"ha":360,"x_min":0,"x_max":0,"o":"m 279 618 b 224 583 265 594 244 583 l 100 583 b 199 729 100 583 168 688 b 271 874 249 794 271 832 b 161 978 271 931 225 978 b 42 860 161 978 47 982 l 60 858 b 182 738 85 985 310 931 l 42 526 l 272 526 l 297 618 z "},"³":{"ha":365,"x_min":0,"x_max":0,"o":"m 310 658 b 210 768 308 704 276 753 b 168 978 329 835 271 978 b 49 875 161 978 56 978 l 68 874 b 190 918 79 931 149 953 b 131 761 246 871 226 776 l 131 743 b 250 643 224 738 246 681 b 163 535 257 574 222 535 b 99 550 111 535 93 549 b 115 567 107 553 111 558 b 94 613 122 585 113 606 b 50 592 76 619 57 610 b 57 556 44 581 47 564 b 163 518 75 538 111 518 b 310 658 218 518 313 547 z "},"´":{"ha":485,"x_min":0,"x_max":0,"o":"m 121 774 l 153 774 l 479 965 l 367 1000 z "},"µ":{"ha":719,"x_min":0,"x_max":0,"o":"m 692 33 b 621 115 633 40 621 49 l 621 654 l 435 628 l 435 611 b 500 513 503 607 500 597 l 500 163 b 356 56 475 104 425 56 b 213 192 278 56 217 94 l 213 654 l 15 628 l 15 611 b 93 510 94 606 93 599 l 93 -346 b 128 -367 93 -346 92 -374 l 285 -340 l 285 -322 b 213 -235 226 -317 213 -303 l 213 8 b 500 128 335 -54 474 32 l 500 10 b 533 -11 500 10 500 -18 l 692 15 l 692 33 z "},"¶":{"ha":867,"x_min":0,"x_max":0,"o":"m 646 797 b 760 960 646 894 690 960 l 760 978 l 564 978 l 564 -368 l 750 -368 l 750 -350 b 646 -175 683 -350 646 -283 z m 399 978 l 397 978 b 50 694 231 976 50 924 b 397 417 50 464 208 417 l 397 -201 b 239 -350 397 -326 306 -350 l 239 -368 l 479 -368 l 479 978 z "},"·":{"ha":350,"x_min":0,"x_max":0,"o":"m 174 351 b 239 415 210 351 239 381 b 174 481 239 451 210 481 b 108 415 138 481 108 451 b 174 351 108 381 138 351 z "},"¸":{"ha":369,"x_min":0,"x_max":0,"o":"m 154 -6 l 113 -126 b 258 -222 229 -101 258 -186 b 176 -306 260 -275 224 -306 b 128 -292 136 -304 125 -293 b 142 -276 133 -289 139 -285 b 121 -235 149 -258 139 -240 b 78 -253 104 -228 85 -235 b 85 -287 74 -265 78 -279 b 176 -318 93 -296 121 -318 b 318 -207 222 -318 307 -303 b 142 -93 328 -136 271 -64 l 172 -6 z "},"¹":{"ha":290,"x_min":0,"x_max":0,"o":"m 182 597 l 182 979 l 160 979 l 58 900 l 69 883 b 124 874 90 899 124 917 l 124 597 b 69 546 124 550 96 546 l 69 528 l 232 528 l 232 546 b 182 597 208 546 182 549 z "},"º":{"ha":453,"x_min":0,"x_max":0,"o":"m 225 536 b 118 746 171 536 118 567 b 225 964 118 928 169 964 b 331 746 278 964 331 928 b 225 536 331 567 281 536 z m 225 982 b 47 746 79 982 47 860 b 225 518 47 635 79 518 b 401 746 368 518 401 635 b 225 982 401 860 368 982 z "},"»":{"ha":846,"x_min":0,"x_max":0,"o":"m 115 665 l 321 369 l 115 82 l 115 46 l 436 369 l 115 701 z m 399 665 l 606 369 l 399 82 l 399 46 l 719 369 l 399 701 z "},"¼":{"ha":867,"x_min":0,"x_max":0,"o":"m 19 50 l 88 50 l 861 985 l 792 985 z m 192 922 l 192 594 b 133 539 192 542 163 539 l 133 521 l 307 521 l 307 539 b 253 594 282 539 253 539 l 253 1036 l 229 1036 l 121 946 l 132 929 b 192 922 156 947 192 969 z m 628 185 l 508 185 b 497 215 489 185 479 185 l 628 410 z m 700 507 l 671 508 l 435 158 l 435 147 l 628 147 l 628 92 b 575 18 628 21 604 18 l 575 0 l 754 0 l 754 18 b 700 94 724 18 700 19 l 700 147 l 769 147 l 769 185 l 700 185 z "},"½":{"ha":892,"x_min":0,"x_max":0,"o":"m 818 106 b 749 65 803 78 772 65 l 606 65 b 718 232 606 65 683 185 b 803 397 775 307 803 350 b 678 518 803 463 751 518 b 543 382 678 518 550 522 l 560 378 b 701 242 588 525 847 463 l 542 0 l 804 0 l 833 106 z m 192 922 l 192 594 b 133 539 192 542 163 539 l 133 521 l 307 521 l 307 539 b 253 594 282 539 253 539 l 253 1036 l 229 1036 l 121 946 l 132 931 b 192 922 156 949 192 969 z m 19 50 l 88 50 l 861 985 l 792 985 z "},"¾":{"ha":890,"x_min":0,"x_max":0,"o":"m 628 185 l 508 185 b 497 215 489 185 479 185 l 628 410 z m 769 147 l 769 185 l 700 185 l 700 507 l 671 508 l 435 158 l 435 147 l 628 147 l 628 92 b 575 18 628 21 604 18 l 575 0 l 754 0 l 754 18 b 700 94 724 18 700 19 l 700 147 z m 367 676 b 253 800 364 728 328 785 b 206 1036 388 875 322 1036 b 74 921 199 1036 81 1036 l 93 917 b 232 968 107 981 185 1006 b 163 792 294 917 272 810 l 163 776 b 299 660 269 769 294 701 b 200 536 307 578 274 536 b 132 554 143 536 126 551 b 147 571 138 556 142 561 b 124 624 154 592 144 614 b 72 600 103 631 81 621 b 81 558 68 588 69 568 b 200 518 101 538 142 518 b 367 676 264 518 367 547 z m 19 50 l 88 50 l 861 985 l 792 985 z "},"¿":{"ha":817,"x_min":0,"x_max":0,"o":"m 361 568 b 450 481 361 519 400 481 b 538 568 499 481 538 519 b 450 657 538 618 499 657 b 361 568 400 657 361 618 z m 351 189 b 140 -128 275 157 131 74 b 599 -329 150 -328 376 -429 b 708 -215 665 -300 701 -243 b 700 -140 714 -192 717 -162 b 597 -119 676 -107 631 -96 b 581 -222 565 -143 557 -189 b 625 -251 592 -239 607 -250 b 592 -314 642 -253 650 -292 b 289 -122 475 -360 308 -335 b 403 154 275 40 342 101 b 475 372 492 228 483 318 l 447 368 b 351 189 454 285 422 217 z "},"À":{"ha":963,"x_min":0,"x_max":0,"o":"m 593 314 l 411 775 l 243 314 z m 935 18 l 935 0 l 618 0 l 618 18 b 647 175 693 18 679 97 l 599 296 l 239 296 b 333 18 201 185 140 13 l 333 0 l 24 0 l 24 18 b 232 346 76 19 111 25 l 464 978 l 479 978 b 821 131 649 569 821 131 b 935 18 867 19 896 21 z m 396 1246 l 283 1211 l 610 1019 l 642 1019 z "},"Á":{"ha":963,"x_min":0,"x_max":0,"o":"m 243 314 l 411 775 l 593 314 z m 935 18 b 821 131 896 21 867 19 b 479 978 821 131 649 569 l 464 978 l 232 346 b 24 18 111 25 76 19 l 24 0 l 333 0 l 333 18 b 239 296 140 13 201 185 l 599 296 l 647 175 b 618 18 679 97 693 18 l 618 0 l 935 0 z m 306 1019 l 338 1019 l 664 1211 l 551 1246 z "},"Â":{"ha":963,"x_min":0,"x_max":0,"o":"m 593 314 l 411 775 l 243 314 z m 935 18 l 935 0 l 618 0 l 618 18 b 647 175 693 18 679 97 l 599 296 l 239 296 b 333 18 201 185 140 13 l 333 0 l 24 0 l 24 18 b 232 346 76 19 111 25 l 464 978 l 479 978 b 821 131 649 569 821 131 b 935 18 867 19 896 21 z m 639 1021 l 672 1021 l 474 1282 l 276 1021 l 308 1021 l 474 1163 z "},"Ã":{"ha":963,"x_min":0,"x_max":0,"o":"m 535 1065 b 790 1218 535 1065 706 1004 l 778 1224 b 571 1158 743 1149 617 1142 l 411 1219 b 157 1067 411 1219 240 1278 l 169 1061 b 376 1125 207 1143 331 1142 z m 243 314 l 411 775 l 593 314 z m 935 18 b 821 131 896 21 867 19 b 479 978 821 131 649 569 l 464 978 l 232 346 b 24 18 111 25 76 19 l 24 0 l 333 0 l 333 18 b 239 296 140 13 201 185 l 599 296 l 647 175 b 618 18 679 97 693 18 l 618 0 l 935 0 z "},"Ä":{"ha":963,"x_min":0,"x_max":0,"o":"m 519 1149 b 583 1085 519 1114 549 1085 b 649 1149 619 1085 649 1114 b 583 1214 649 1185 619 1214 b 519 1149 549 1214 519 1185 z m 299 1149 b 363 1085 299 1114 326 1085 b 426 1149 397 1085 426 1114 b 363 1214 426 1185 397 1214 b 299 1149 326 1214 299 1185 z m 243 314 l 411 775 l 593 314 z m 935 18 b 821 131 896 21 867 19 b 479 978 821 131 649 569 l 464 978 l 232 346 b 24 18 111 25 76 19 l 24 0 l 333 0 l 333 18 b 239 296 140 13 201 185 l 599 296 l 647 175 b 618 18 679 97 693 18 l 618 0 l 935 0 z "},"Å":{"ha":963,"x_min":0,"x_max":0,"o":"m 383 1221 b 474 1311 383 1271 424 1311 b 563 1221 524 1311 563 1271 b 474 1132 563 1172 524 1132 b 383 1221 424 1132 383 1172 z m 336 1221 b 474 1085 336 1146 397 1085 b 611 1221 549 1085 611 1146 b 474 1360 611 1297 549 1360 b 336 1221 397 1360 336 1297 z m 243 314 l 411 775 l 593 314 z m 935 18 b 821 131 896 21 867 19 b 479 978 821 131 649 569 l 464 978 l 232 346 b 24 18 111 25 76 19 l 24 0 l 333 0 l 333 18 b 239 296 140 13 201 185 l 599 296 l 647 175 b 618 18 679 97 693 18 l 618 0 l 935 0 z "},"Æ":{"ha":1304,"x_min":0,"x_max":0,"o":"m 321 346 l 622 886 b 625 831 625 876 625 844 l 625 346 z m 1204 288 b 819 18 1176 13 943 18 l 769 18 l 769 483 l 846 483 b 1024 344 881 483 1017 489 l 1042 344 l 1042 642 l 1024 642 b 846 501 1017 497 883 501 l 769 501 l 769 960 l 831 960 b 1185 728 943 960 1169 958 l 1203 728 l 1203 978 l 528 978 l 528 960 b 615 915 568 960 600 957 l 308 365 b 13 18 129 47 65 19 l 13 0 l 331 0 l 331 18 b 313 328 219 18 164 56 l 625 328 l 625 163 b 539 18 625 43 597 18 l 539 0 l 1222 0 l 1222 288 z "},"Ç":{"ha":932,"x_min":0,"x_max":0,"o":"m 838 288 b 538 6 819 76 650 6 b 233 489 397 6 233 63 b 538 972 233 908 393 972 b 838 690 650 972 799 919 l 856 690 l 872 906 b 538 990 785 976 681 990 b 56 489 250 990 56 801 b 497 -11 56 193 232 6 l 460 -121 b 606 -217 576 -96 606 -181 b 524 -300 607 -269 571 -300 b 475 -286 483 -299 472 -287 b 489 -271 481 -283 486 -279 b 468 -229 496 -253 486 -235 b 425 -247 451 -222 432 -229 b 432 -282 421 -260 425 -274 b 524 -312 440 -290 468 -312 b 665 -201 569 -312 654 -297 b 489 -87 675 -131 618 -58 l 515 -12 b 538 -12 522 -12 529 -12 b 872 74 686 -12 769 6 l 856 288 z "},"È":{"ha":828,"x_min":0,"x_max":0,"o":"m 742 289 l 742 0 l 43 0 l 43 18 b 118 163 101 18 118 68 l 118 829 b 43 960 118 915 104 960 l 43 978 l 724 978 l 724 728 l 706 728 b 336 960 689 957 449 960 l 261 960 l 261 503 l 351 503 b 543 643 389 503 536 503 l 561 643 l 561 344 l 543 344 b 351 485 536 483 386 485 l 261 485 l 261 18 l 325 18 b 724 289 449 18 694 11 z m 332 1246 l 219 1211 l 546 1019 l 578 1019 z "},"É":{"ha":828,"x_min":0,"x_max":0,"o":"m 724 289 b 325 18 694 11 449 18 l 261 18 l 261 485 l 351 485 b 543 344 386 485 536 483 l 561 344 l 561 643 l 543 643 b 351 503 536 503 389 503 l 261 503 l 261 960 l 336 960 b 706 728 449 960 689 957 l 724 728 l 724 978 l 43 978 l 43 960 b 118 829 104 960 118 915 l 118 163 b 43 18 118 68 101 18 l 43 0 l 742 0 l 742 289 z m 213 1019 l 244 1019 l 571 1211 l 458 1246 z "},"Ê":{"ha":828,"x_min":0,"x_max":0,"o":"m 742 289 l 742 0 l 43 0 l 43 18 b 118 163 101 18 118 68 l 118 829 b 43 960 118 915 104 960 l 43 978 l 724 978 l 724 728 l 706 728 b 336 960 689 957 449 960 l 261 960 l 261 503 l 351 503 b 543 643 389 503 536 503 l 561 643 l 561 344 l 543 344 b 351 485 536 483 386 485 l 261 485 l 261 18 l 325 18 b 724 289 449 18 694 11 z m 560 1021 l 593 1021 l 394 1282 l 197 1021 l 229 1021 l 394 1163 z "},"Ë":{"ha":828,"x_min":0,"x_max":0,"o":"m 440 1149 b 504 1085 440 1114 469 1085 b 569 1149 540 1085 569 1114 b 504 1214 569 1185 540 1214 b 440 1149 469 1214 440 1185 z m 219 1149 b 283 1085 219 1114 247 1085 b 347 1149 318 1085 347 1114 b 283 1214 347 1185 318 1214 b 219 1149 247 1214 219 1185 z m 724 289 b 325 18 694 11 449 18 l 261 18 l 261 485 l 351 485 b 543 344 386 485 536 483 l 561 344 l 561 643 l 543 643 b 351 503 536 503 389 503 l 261 503 l 261 960 l 336 960 b 706 728 449 960 689 957 l 724 728 l 724 978 l 43 978 l 43 960 b 118 829 104 960 118 915 l 118 163 b 43 18 118 68 101 18 l 43 0 l 742 0 l 742 289 z "},"Ì":{"ha":478,"x_min":0,"x_max":0,"o":"m 410 978 l 410 960 b 313 850 350 960 313 936 l 313 149 b 410 18 313 54 351 18 l 410 0 l 72 0 l 72 18 b 169 149 132 18 169 54 l 169 850 b 72 960 169 936 133 960 l 72 978 z m 165 1246 l 53 1211 l 379 1019 l 411 1019 z "},"Í":{"ha":478,"x_min":0,"x_max":0,"o":"m 72 978 l 72 960 b 169 850 133 960 169 936 l 169 149 b 72 18 169 54 132 18 l 72 0 l 410 0 l 410 18 b 313 149 351 18 313 54 l 313 850 b 410 960 313 936 350 960 l 410 978 z m 58 1019 l 90 1019 l 417 1211 l 304 1246 z "},"Î":{"ha":478,"x_min":0,"x_max":0,"o":"m 410 978 l 410 960 b 313 850 350 960 313 936 l 313 149 b 410 18 313 54 351 18 l 410 0 l 72 0 l 72 18 b 169 149 132 18 169 54 l 169 850 b 72 960 169 936 133 960 l 72 978 z m 407 1021 l 440 1021 l 242 1282 l 44 1021 l 76 1021 l 242 1163 z "},"Ï":{"ha":478,"x_min":0,"x_max":0,"o":"m 353 1085 b 418 1149 388 1085 418 1114 b 353 1214 418 1185 388 1214 b 289 1149 317 1214 289 1185 b 353 1085 289 1114 317 1085 z m 196 1149 b 131 1214 196 1185 167 1214 b 67 1149 96 1214 67 1185 b 131 1085 67 1114 96 1085 b 196 1149 167 1085 196 1114 z m 74 960 b 171 850 135 960 171 936 l 171 149 b 74 18 171 54 132 18 l 74 0 l 410 0 l 410 18 b 313 149 351 18 313 54 l 313 850 b 410 960 313 936 350 960 l 410 978 l 74 978 z "},"Ð":{"ha":988,"x_min":0,"x_max":0,"o":"m 744 486 b 360 18 744 25 510 18 l 299 18 l 299 475 l 497 475 l 497 501 l 299 501 l 299 960 l 360 960 b 744 486 513 960 744 935 z m 911 486 b 360 978 911 893 636 978 l 61 978 l 61 960 b 156 814 122 960 156 900 l 156 501 l 28 501 l 28 475 l 156 475 l 156 165 b 61 18 156 71 121 18 l 61 0 l 360 0 b 911 486 636 0 911 67 z "},"Ñ":{"ha":1121,"x_min":0,"x_max":0,"o":"m 615 1065 b 871 1218 615 1065 786 1004 l 857 1224 b 650 1158 824 1149 696 1142 l 492 1219 b 236 1067 492 1219 319 1278 l 249 1061 b 456 1125 286 1143 410 1142 z m 689 978 l 689 961 b 871 632 872 961 871 761 l 871 203 l 271 978 l 14 978 l 14 961 b 179 856 50 958 90 967 l 236 782 l 236 347 b 35 18 236 222 236 18 l 35 0 l 436 0 l 436 18 b 254 347 254 18 254 225 l 254 761 l 844 0 l 889 0 l 889 632 b 1086 961 889 761 885 961 l 1086 978 z "},"Ò":{"ha":1025,"x_min":0,"x_max":0,"o":"m 799 482 b 508 972 799 863 672 972 b 217 482 343 972 217 863 b 508 6 217 100 343 6 b 799 482 672 6 799 100 z m 960 482 b 508 -12 960 206 814 -12 b 57 482 203 -12 57 206 b 508 990 57 757 203 990 b 960 482 814 990 960 757 z m 451 1246 l 339 1211 l 665 1019 l 697 1019 z "},"Ó":{"ha":1025,"x_min":0,"x_max":0,"o":"m 799 482 b 508 6 799 100 672 6 b 217 482 343 6 217 100 b 508 972 217 863 343 972 b 799 482 672 972 799 863 z m 960 482 b 508 990 960 757 814 990 b 57 482 203 990 57 757 b 508 -12 57 206 203 -12 b 960 482 814 -12 960 206 z m 342 1019 l 374 1019 l 700 1211 l 588 1246 z "},"Ô":{"ha":1025,"x_min":0,"x_max":0,"o":"m 799 482 b 508 972 799 863 672 972 b 217 482 343 972 217 863 b 508 6 217 100 343 6 b 799 482 672 6 799 100 z m 960 482 b 508 -12 960 206 814 -12 b 57 482 203 -12 57 206 b 508 990 57 757 203 990 b 960 482 814 990 960 757 z m 678 1021 l 711 1021 l 513 1282 l 315 1021 l 347 1021 l 513 1163 z "},"Õ":{"ha":1025,"x_min":0,"x_max":0,"o":"m 417 1125 l 576 1065 b 832 1218 576 1065 747 1004 l 818 1224 b 611 1158 785 1149 657 1142 l 453 1219 b 197 1067 453 1219 281 1278 l 210 1061 b 417 1125 247 1142 371 1142 z m 799 482 b 508 972 799 863 672 972 b 217 482 343 972 217 863 b 508 6 217 100 343 6 b 799 482 672 6 799 100 z m 960 482 b 508 -12 960 206 814 -12 b 57 482 203 -12 57 206 b 508 990 57 757 203 990 b 960 482 814 990 960 757 z "},"Ö":{"ha":1025,"x_min":0,"x_max":0,"o":"m 557 1149 b 621 1085 557 1113 585 1085 b 686 1149 656 1085 686 1113 b 621 1214 686 1185 656 1214 b 557 1149 585 1214 557 1185 z m 335 1149 b 399 1085 335 1113 364 1085 b 464 1149 435 1085 464 1113 b 399 1214 464 1185 435 1214 b 335 1149 364 1214 335 1185 z m 799 482 b 508 6 799 100 672 6 b 217 482 343 6 217 100 b 508 972 217 863 343 972 b 799 482 672 972 799 863 z m 960 482 b 508 990 960 757 814 990 b 57 482 203 990 57 757 b 508 -12 57 206 203 -12 b 960 482 814 -12 960 206 z "},"×":{"ha":833,"x_min":0,"x_max":0,"o":"m 485 354 l 750 618 l 682 688 l 417 424 l 153 688 l 83 617 l 349 354 l 82 88 l 151 18 l 417 285 l 683 18 l 751 88 z "},"Ø":{"ha":1026,"x_min":0,"x_max":0,"o":"m 510 6 b 306 107 426 6 356 31 l 736 829 b 800 483 775 754 800 643 b 510 6 800 100 674 6 z m 218 483 b 510 972 218 864 344 972 b 724 857 597 972 672 943 l 290 131 b 218 483 247 203 218 315 z m 783 907 l 860 1035 l 831 1035 l 763 922 b 510 990 696 967 613 990 b 58 483 204 990 58 758 b 249 61 58 303 121 147 l 183 -49 l 213 -49 l 269 47 b 510 -12 335 10 414 -12 b 961 483 815 -12 961 206 b 783 907 961 657 903 814 z "},"Ù":{"ha":994,"x_min":0,"x_max":0,"o":"m 428 1246 l 315 1211 l 642 1019 l 674 1019 z m 447 -12 b 125 333 267 -12 125 107 l 125 839 b 26 960 125 933 88 960 l 26 978 l 372 978 l 372 960 b 263 838 313 960 263 947 l 263 321 b 515 50 263 149 365 50 b 767 328 657 50 767 149 l 767 706 b 601 960 767 836 764 960 l 601 978 l 963 978 l 963 960 b 785 706 781 960 785 836 l 785 328 b 447 -12 785 79 618 -12 z "},"Ú":{"ha":994,"x_min":0,"x_max":0,"o":"m 447 -12 b 785 328 618 -12 785 79 l 785 706 b 963 960 785 836 781 960 l 963 978 l 601 978 l 601 960 b 767 706 764 960 767 836 l 767 328 b 515 50 767 149 657 50 b 263 321 365 50 263 149 l 263 838 b 372 960 263 947 313 960 l 372 978 l 26 978 l 26 960 b 125 839 88 960 125 933 l 125 333 b 447 -12 125 107 267 -12 z m 324 1019 l 356 1019 l 682 1211 l 569 1246 z "},"Û":{"ha":994,"x_min":0,"x_max":0,"o":"m 656 1021 l 689 1021 l 490 1282 l 293 1021 l 325 1021 l 490 1163 z m 447 -12 b 125 333 267 -12 125 107 l 125 839 b 26 960 125 933 88 960 l 26 978 l 372 978 l 372 960 b 263 838 313 960 263 947 l 263 321 b 515 50 263 149 365 50 b 767 328 657 50 767 149 l 767 706 b 601 960 767 836 764 960 l 601 978 l 963 978 l 963 960 b 785 706 781 960 785 836 l 785 328 b 447 -12 785 79 618 -12 z "},"Ü":{"ha":994,"x_min":0,"x_max":0,"o":"m 540 1149 b 604 1085 540 1113 568 1085 b 669 1149 639 1085 669 1113 b 604 1214 669 1185 639 1214 b 540 1149 568 1214 540 1185 z m 318 1149 b 382 1085 318 1113 347 1085 b 447 1149 418 1085 447 1113 b 382 1214 447 1185 418 1214 b 318 1149 347 1214 318 1185 z m 447 -12 b 785 328 618 -12 785 79 l 785 706 b 963 960 785 836 781 960 l 963 978 l 601 978 l 601 960 b 767 706 764 960 767 836 l 767 328 b 515 50 767 149 657 50 b 263 321 365 50 263 149 l 263 838 b 372 960 263 947 313 960 l 372 978 l 26 978 l 26 960 b 125 839 88 960 125 933 l 125 333 b 447 -12 125 107 267 -12 z "},"Ý":{"ha":961,"x_min":0,"x_max":0,"o":"m 585 978 l 585 961 b 644 676 772 961 690 774 l 540 461 l 338 804 b 369 963 243 964 331 963 l 369 978 l 13 978 l 13 963 b 158 853 58 960 96 958 b 419 400 158 853 215 761 l 419 156 b 315 18 419 43 374 18 l 315 0 l 654 0 l 654 18 b 550 156 596 18 550 43 l 550 436 l 657 653 b 942 961 813 958 882 961 l 942 978 z m 328 1019 l 360 1019 l 686 1211 l 574 1246 z "},"Þ":{"ha":806,"x_min":0,"x_max":0,"o":"m 290 785 l 315 785 b 625 522 478 785 625 786 b 315 264 625 265 486 264 l 290 264 z m 315 246 b 776 522 592 246 776 276 b 315 803 776 769 592 803 l 290 803 l 290 836 b 385 960 290 922 325 960 l 385 978 l 63 978 l 63 960 b 156 836 124 960 156 922 l 156 163 b 63 18 156 68 121 18 l 63 0 l 385 0 l 385 18 b 290 163 326 18 290 68 l 290 246 z "},"ß":{"ha":811,"x_min":0,"x_max":0,"o":"m 778 281 b 458 582 778 518 557 582 b 651 797 486 582 651 625 b 356 1038 651 993 506 1038 b 94 699 175 1038 94 911 l 94 163 b 39 17 94 92 92 33 l 39 0 l 219 0 l 219 758 b 356 1019 219 758 217 1019 b 529 803 379 1019 529 1029 b 361 586 529 613 435 586 l 361 569 b 628 290 463 569 625 511 b 467 6 631 122 588 6 b 404 33 411 6 390 29 b 440 61 417 36 432 46 b 417 146 454 89 446 131 b 332 122 388 161 349 151 b 333 53 321 101 324 72 b 467 -12 346 26 389 -12 b 778 281 690 -12 778 114 z "},"à":{"ha":674,"x_min":0,"x_max":0,"o":"m 413 343 b 413 136 413 343 413 138 b 290 50 399 103 364 50 b 181 160 206 50 181 119 b 413 343 181 243 251 304 z m 600 53 b 538 140 536 53 538 140 l 538 376 b 344 654 538 542 496 654 b 217 628 344 654 276 658 b 108 525 142 588 118 546 b 115 457 97 506 100 478 b 204 444 136 428 176 422 b 218 535 233 465 239 507 b 175 560 207 550 192 557 b 229 614 167 561 175 588 b 413 442 340 665 413 585 l 413 361 b 57 131 175 300 57 269 b 215 -12 57 -12 215 -12 b 413 104 313 -12 393 38 b 531 -12 421 -15 531 -12 b 658 82 603 -12 650 40 l 642 89 b 600 53 632 53 600 53 z m 267 976 l 154 942 l 481 750 l 513 750 z "},"á":{"ha":674,"x_min":0,"x_max":0,"o":"m 413 343 b 413 136 413 343 413 138 b 290 50 399 103 364 50 b 181 160 206 50 181 119 b 413 343 181 243 251 304 z m 600 53 b 538 140 536 53 538 140 l 538 376 b 344 654 538 542 496 654 b 217 628 344 654 276 658 b 108 525 142 588 118 546 b 115 457 97 506 100 478 b 204 444 136 428 176 422 b 218 535 233 465 239 507 b 175 560 207 550 192 557 b 229 614 167 561 175 588 b 413 442 340 665 413 585 l 413 361 b 57 131 175 300 57 269 b 215 -12 57 -12 215 -12 b 413 104 313 -12 393 38 b 531 -12 421 -15 531 -12 b 658 82 603 -12 650 40 l 642 89 b 600 53 632 53 600 53 z m 171 750 l 203 750 l 529 942 l 417 976 z "},"â":{"ha":674,"x_min":0,"x_max":0,"o":"m 413 343 b 413 136 413 343 413 138 b 290 50 399 103 364 50 b 181 160 206 50 181 119 b 413 343 181 243 251 304 z m 600 53 b 538 140 536 53 538 140 l 538 376 b 344 654 538 542 496 654 b 217 628 344 654 276 658 b 108 525 142 588 118 546 b 115 457 97 506 100 478 b 204 444 136 428 176 422 b 218 535 233 465 239 507 b 175 560 207 550 192 557 b 229 614 167 561 175 588 b 413 442 340 665 413 585 l 413 361 b 57 131 175 300 57 269 b 215 -12 57 -12 215 -12 b 413 104 313 -12 393 38 b 531 -12 421 -15 531 -12 b 658 82 603 -12 650 40 l 642 89 b 600 53 632 53 600 53 z m 513 718 l 546 718 l 347 979 l 150 718 l 182 718 l 347 860 z "},"ã":{"ha":674,"x_min":0,"x_max":0,"o":"m 417 781 b 672 932 417 781 588 719 l 658 939 b 451 874 625 863 497 856 l 293 933 b 38 782 293 933 121 993 l 50 776 b 257 840 88 857 211 857 z m 413 343 b 413 136 413 343 413 138 b 290 50 399 103 364 50 b 181 160 206 50 181 119 b 413 343 181 243 251 304 z m 600 53 b 538 140 536 53 538 140 l 538 376 b 344 654 538 542 496 654 b 217 628 344 654 276 658 b 108 525 142 588 118 546 b 115 457 97 506 100 478 b 204 444 136 428 176 422 b 218 535 233 465 239 507 b 175 560 207 550 192 557 b 229 614 167 561 175 588 b 413 442 340 665 413 585 l 413 361 b 57 131 175 300 57 269 b 215 -12 57 -12 215 -12 b 413 104 313 -12 393 38 b 531 -12 421 -15 531 -12 b 658 82 603 -12 650 40 l 642 89 b 600 53 632 53 600 53 z "},"ä":{"ha":674,"x_min":0,"x_max":0,"o":"m 449 790 b 514 856 485 790 514 819 b 449 921 514 892 485 921 b 385 856 413 921 385 892 b 449 790 385 819 413 790 z m 164 856 b 228 790 164 819 192 790 b 292 856 263 790 292 819 b 228 921 292 892 263 921 b 164 856 192 921 164 892 z m 413 343 b 413 136 413 343 413 138 b 290 50 399 103 364 50 b 181 160 206 50 181 119 b 413 343 181 243 251 304 z m 600 53 b 538 140 536 53 538 140 l 538 376 b 344 654 538 542 496 654 b 217 628 344 654 276 658 b 108 525 142 588 118 546 b 115 457 97 506 100 478 b 204 444 136 428 176 422 b 218 535 233 465 239 507 b 175 560 207 550 192 557 b 229 614 167 561 175 588 b 413 442 340 665 413 585 l 413 361 b 57 131 175 300 57 269 b 215 -12 57 -12 215 -12 b 413 104 313 -12 393 38 b 531 -12 421 -15 531 -12 b 658 82 603 -12 650 40 l 642 89 b 600 53 632 53 600 53 z "},"å":{"ha":674,"x_min":0,"x_max":0,"o":"m 335 976 b 425 886 385 976 425 936 b 335 796 425 836 385 796 b 246 886 285 796 246 836 b 335 976 246 936 285 976 z m 335 749 b 472 886 411 749 472 811 b 335 1024 472 961 411 1024 b 199 886 260 1024 199 961 b 335 749 199 811 260 749 z m 413 343 b 413 136 413 343 413 138 b 290 50 399 103 364 50 b 181 160 206 50 181 119 b 413 343 181 243 251 304 z m 600 53 b 538 140 536 53 538 140 l 538 376 b 344 654 538 542 496 654 b 217 628 344 654 276 658 b 108 525 142 588 118 546 b 115 457 97 506 100 478 b 204 444 136 428 176 422 b 218 535 233 465 239 507 b 175 560 207 550 192 557 b 229 614 167 561 175 588 b 413 442 340 665 413 585 l 413 361 b 57 131 175 300 57 269 b 215 -12 57 -12 215 -12 b 413 104 313 -12 393 38 b 531 -12 421 -15 531 -12 b 658 82 603 -12 650 40 l 642 89 b 600 53 632 53 600 53 z "},"æ":{"ha":981,"x_min":0,"x_max":0,"o":"m 671 636 b 810 349 740 636 810 560 l 519 349 b 671 636 519 532 588 636 z m 288 50 b 181 160 203 50 181 118 b 394 339 181 279 354 326 b 396 290 394 339 394 308 b 418 151 397 253 404 189 b 288 50 403 108 361 50 z m 696 61 b 519 331 578 72 524 154 l 924 331 b 671 654 924 558 836 654 b 476 553 586 654 531 617 b 326 654 450 613 401 654 b 210 625 326 654 269 656 b 103 525 135 585 114 544 b 110 457 93 504 94 478 b 200 443 131 428 171 422 b 213 535 228 465 235 506 b 172 560 201 549 188 558 b 224 613 164 561 169 586 b 394 442 335 664 394 585 l 394 357 b 57 131 167 294 57 260 b 215 -12 57 -12 215 -12 b 429 132 326 -12 410 46 b 663 -12 465 49 550 -12 b 899 164 828 -12 882 101 l 882 172 b 696 61 857 115 782 53 z "},"ç":{"ha":668,"x_min":0,"x_max":0,"o":"m 607 178 b 394 64 582 121 496 56 b 192 335 296 74 192 150 b 400 636 192 594 344 636 b 518 594 493 636 531 597 b 479 565 504 593 489 582 b 503 478 461 536 471 496 b 592 501 532 460 574 472 b 590 569 604 524 601 550 b 400 654 578 592 536 654 b 63 319 188 654 63 490 b 338 -11 63 128 193 3 l 300 -121 b 446 -217 417 -96 446 -181 b 364 -300 447 -269 411 -300 b 315 -286 324 -299 313 -287 b 329 -271 321 -283 326 -279 b 308 -229 336 -253 326 -235 b 265 -247 292 -222 272 -229 b 272 -282 261 -260 265 -274 b 364 -312 281 -290 308 -312 b 506 -201 410 -312 494 -297 b 329 -87 515 -131 458 -58 l 356 -12 l 365 -12 b 622 171 536 -12 607 101 z "},"è":{"ha":682,"x_min":0,"x_max":0,"o":"m 506 351 b 349 636 506 554 415 636 b 181 351 269 636 181 526 z m 586 171 l 603 164 b 347 -12 588 99 511 -12 b 50 315 174 -12 50 132 b 353 654 50 521 181 654 b 625 333 514 654 625 551 l 181 333 b 379 60 186 146 269 71 b 586 171 463 51 561 103 z m 289 976 l 176 942 l 503 750 l 535 750 z "},"é":{"ha":682,"x_min":0,"x_max":0,"o":"m 181 351 b 349 636 181 526 269 636 b 506 351 415 636 506 554 z m 586 171 b 379 60 561 103 463 51 b 181 333 269 71 186 146 l 625 333 b 353 654 625 551 514 654 b 50 315 181 654 50 521 b 347 -12 50 132 174 -12 b 603 164 511 -12 588 99 z m 153 750 l 185 750 l 511 942 l 399 976 z "},"ê":{"ha":682,"x_min":0,"x_max":0,"o":"m 506 351 b 349 636 506 554 415 636 b 181 351 269 636 181 526 z m 586 171 l 603 164 b 347 -12 588 99 511 -12 b 50 315 174 -12 50 132 b 353 654 50 521 181 654 b 625 333 514 654 625 551 l 181 333 b 379 60 186 146 269 71 b 586 171 463 51 561 103 z m 504 718 l 538 718 l 339 979 l 142 718 l 174 718 l 339 860 z "},"ë":{"ha":682,"x_min":0,"x_max":0,"o":"m 463 790 b 526 856 497 790 526 819 b 463 921 526 892 497 921 b 399 856 426 921 399 892 b 463 790 399 819 426 790 z m 349 636 b 506 351 415 636 506 554 l 181 351 b 349 636 181 526 269 636 z m 379 60 b 181 333 269 71 186 146 l 625 333 b 353 654 625 551 514 654 b 50 315 181 654 50 521 b 347 -12 50 132 174 -12 b 603 164 511 -12 588 99 l 586 171 b 379 60 561 103 463 51 z m 240 790 b 306 856 276 790 306 819 b 240 921 306 892 276 921 b 176 856 204 921 176 892 b 240 790 176 819 204 790 z "},"ì":{"ha":340,"x_min":0,"x_max":0,"o":"m 288 18 l 288 0 l 54 0 l 54 18 b 110 129 107 33 110 58 l 110 514 b 39 597 110 563 97 582 l 39 614 l 231 654 l 231 129 b 288 18 231 51 238 31 z m 100 976 l -12 942 l 314 750 l 346 750 z "},"í":{"ha":340,"x_min":0,"x_max":0,"o":"m 288 18 b 231 129 238 31 231 51 l 231 654 l 39 614 l 39 597 b 110 514 97 582 110 563 l 110 129 b 54 18 110 58 107 33 l 54 0 l 288 0 z m 3 750 l 35 750 l 361 942 l 249 976 z "},"î":{"ha":340,"x_min":0,"x_max":0,"o":"m 288 18 l 288 0 l 54 0 l 54 18 b 110 129 107 33 110 58 l 110 514 b 39 597 110 563 97 582 l 39 614 l 231 654 l 231 129 b 288 18 231 51 238 31 z m 336 718 l 369 718 l 171 979 l -26 718 l 6 718 l 171 860 z "},"ï":{"ha":340,"x_min":0,"x_max":0,"o":"m 274 790 b 338 856 308 790 338 819 b 274 921 338 892 308 921 b 210 856 238 921 210 892 b 274 790 210 819 238 790 z m 51 790 b 117 856 88 790 117 819 b 51 921 117 892 88 921 b -12 856 15 921 -12 892 b 51 790 -12 819 15 790 z m 288 18 b 231 129 238 31 231 51 l 231 654 l 39 614 l 39 597 b 110 514 97 582 110 563 l 110 129 b 54 18 110 58 107 33 l 54 0 l 288 0 z "},"ð":{"ha":753,"x_min":0,"x_max":0,"o":"m 543 460 b 349 6 543 136 489 6 b 200 282 260 6 193 67 b 375 571 204 463 268 571 b 543 463 426 571 499 542 z m 525 883 l 667 958 l 646 975 l 506 900 b 233 990 431 957 343 990 l 233 972 b 444 869 318 972 392 939 l 217 751 l 236 736 l 456 849 b 543 496 506 768 542 629 b 333 607 496 585 401 607 b 53 297 144 607 58 457 b 349 -12 44 83 196 -12 b 690 456 585 -12 690 179 b 525 883 690 642 613 796 z "},"ñ":{"ha":703,"x_min":0,"x_max":0,"o":"m 419 781 b 675 932 419 781 590 719 l 661 939 b 454 874 628 863 500 856 l 296 933 b 40 782 296 933 124 993 l 53 776 b 260 840 90 857 214 857 z m 667 17 b 610 129 618 29 610 53 l 610 432 b 418 654 610 600 531 654 b 206 508 331 654 235 589 l 206 654 l 14 614 l 14 597 b 83 515 72 582 83 564 l 83 128 b 29 18 83 57 82 33 l 29 0 l 263 0 l 263 18 b 206 128 213 31 206 51 l 206 465 b 347 585 217 515 275 585 b 489 428 439 585 489 522 l 489 129 b 433 17 489 58 486 32 l 433 0 l 667 0 z "},"ò":{"ha":767,"x_min":0,"x_max":0,"o":"m 553 321 b 376 636 553 572 482 636 b 197 321 269 636 197 572 b 376 6 197 69 269 6 b 553 321 482 6 553 69 z m 696 321 b 376 -12 696 139 589 -12 b 56 321 165 -12 56 139 b 376 654 56 504 165 654 b 696 321 589 654 696 504 z m 308 976 l 196 942 l 522 750 l 554 750 z "},"ó":{"ha":753,"x_min":0,"x_max":0,"o":"m 553 321 b 376 6 553 69 482 6 b 197 321 269 6 197 69 b 376 636 197 572 269 636 b 553 321 482 636 553 572 z m 696 321 b 376 654 696 504 589 654 b 56 321 165 654 56 504 b 376 -12 56 139 165 -12 b 696 321 589 -12 696 139 z m 193 750 l 225 750 l 551 942 l 439 976 z "},"ô":{"ha":753,"x_min":0,"x_max":0,"o":"m 553 321 b 376 636 553 572 482 636 b 197 321 269 636 197 572 b 376 6 197 69 269 6 b 553 321 482 6 553 69 z m 696 321 b 376 -12 696 139 589 -12 b 56 321 165 -12 56 139 b 376 654 56 504 165 654 b 696 321 589 654 696 504 z m 542 718 l 575 718 l 376 979 l 179 718 l 211 718 l 376 860 z "},"õ":{"ha":753,"x_min":0,"x_max":0,"o":"m 286 840 l 446 781 b 701 932 446 781 617 719 l 688 939 b 481 874 654 863 526 856 l 322 933 b 67 782 322 933 150 993 l 79 776 b 286 840 117 857 240 857 z m 553 321 b 376 636 553 572 482 636 b 197 321 269 636 197 572 b 376 6 197 69 269 6 b 553 321 482 6 553 69 z m 696 321 b 376 -12 696 139 589 -12 b 56 321 165 -12 56 139 b 376 654 56 504 165 654 b 696 321 589 654 696 504 z "},"ö":{"ha":753,"x_min":0,"x_max":0,"o":"m 489 790 b 553 856 524 790 553 819 b 489 921 553 892 524 921 b 425 856 453 921 425 892 b 489 790 425 819 453 790 z m 267 790 b 332 856 303 790 332 819 b 267 921 332 892 303 921 b 203 856 231 921 203 892 b 267 790 203 819 231 790 z m 553 321 b 376 636 553 572 482 636 b 197 321 269 636 197 572 b 376 6 197 69 269 6 b 553 321 482 6 553 69 z m 696 321 b 376 -12 696 139 589 -12 b 56 321 165 -12 56 139 b 376 654 56 504 165 654 b 696 321 589 654 696 504 z "},"÷":{"ha":868,"x_min":0,"x_max":0,"o":"m 433 610 b 510 686 476 610 510 644 b 433 763 510 728 476 763 b 357 686 392 763 357 728 b 433 610 357 644 392 610 z m 807 339 l 807 431 l 63 431 l 63 339 z m 433 7 b 510 83 476 7 510 42 b 433 160 510 126 476 160 b 357 83 392 160 357 126 b 433 7 357 42 392 7 z "},"ø":{"ha":754,"x_min":0,"x_max":0,"o":"m 554 319 b 378 6 554 68 483 6 b 250 82 321 6 279 24 l 513 535 b 554 319 538 490 554 419 z m 124 -93 l 147 -93 l 215 24 b 378 -12 260 1 314 -12 b 697 319 590 -12 697 138 b 556 607 697 442 651 550 l 628 729 l 606 729 l 539 617 b 378 654 494 640 440 654 b 57 319 167 654 57 503 b 199 35 57 199 104 92 z m 240 104 b 199 319 215 150 199 218 b 378 636 199 571 271 636 b 503 557 433 636 475 617 z "},"ù":{"ha":725,"x_min":0,"x_max":0,"o":"m 700 33 l 700 15 l 542 -11 b 508 10 508 -18 508 10 l 508 128 b 300 -12 483 54 393 -12 b 101 197 200 -12 101 24 l 101 510 b 24 611 101 599 103 606 l 24 628 l 221 654 l 221 201 b 364 56 221 96 283 56 b 508 163 433 56 483 104 l 508 513 b 443 611 508 597 511 607 l 443 628 l 629 654 l 629 115 b 700 33 629 49 642 40 z m 283 976 l 171 942 l 497 750 l 529 750 z "},"ú":{"ha":725,"x_min":0,"x_max":0,"o":"m 700 33 b 629 115 642 40 629 49 l 629 654 l 443 628 l 443 611 b 508 513 511 607 508 597 l 508 163 b 364 56 483 104 433 56 b 221 201 283 56 221 96 l 221 654 l 24 628 l 24 611 b 101 510 103 606 101 599 l 101 197 b 300 -12 101 24 200 -12 b 508 128 393 -12 483 54 l 508 10 b 542 -11 508 10 508 -18 l 700 15 l 700 33 z m 182 750 l 214 750 l 540 942 l 428 976 z "},"û":{"ha":725,"x_min":0,"x_max":0,"o":"m 700 33 l 700 15 l 542 -11 b 508 10 508 -18 508 10 l 508 128 b 300 -12 483 54 393 -12 b 101 197 200 -12 101 24 l 101 510 b 24 611 101 599 103 606 l 24 628 l 221 654 l 221 201 b 364 56 221 96 283 56 b 508 163 433 56 483 104 l 508 513 b 443 611 508 597 511 607 l 443 628 l 629 654 l 629 115 b 700 33 629 49 642 40 z m 514 718 l 547 718 l 349 979 l 151 718 l 183 718 l 349 860 z "},"ü":{"ha":725,"x_min":0,"x_max":0,"o":"m 467 790 b 532 856 503 790 532 819 b 467 921 532 892 503 921 b 403 856 431 921 403 892 b 467 790 403 819 431 790 z m 246 790 b 310 856 281 790 310 819 b 246 921 310 892 281 921 b 182 856 210 921 182 892 b 246 790 182 819 210 790 z m 700 33 b 629 115 642 40 629 49 l 629 654 l 443 628 l 443 611 b 508 513 511 607 508 597 l 508 163 b 364 56 483 104 433 56 b 221 201 283 56 221 96 l 221 654 l 24 628 l 24 611 b 101 510 103 606 101 599 l 101 197 b 300 -12 101 24 200 -12 b 508 128 393 -12 483 54 l 508 10 b 542 -11 508 10 508 -18 l 700 15 z "},"ý":{"ha":739,"x_min":0,"x_max":0,"o":"m 444 642 l 444 624 b 519 407 606 626 519 407 l 425 156 l 254 524 b 296 624 254 524 207 624 l 296 642 l 8 642 l 8 624 b 107 554 31 622 79 617 b 364 -7 107 554 199 360 l 300 -181 b 249 -233 281 -233 254 -251 b 213 -190 244 -217 232 -199 b 115 -228 175 -174 132 -189 b 153 -325 99 -264 115 -307 b 235 -314 178 -336 215 -331 b 321 -186 256 -299 292 -265 l 538 401 b 714 624 618 613 665 624 l 714 642 z m 168 750 l 200 750 l 526 942 l 414 976 z "},"þ":{"ha":767,"x_min":0,"x_max":0,"o":"m 564 296 b 381 6 564 72 472 6 b 211 189 293 6 219 65 l 211 450 b 371 613 219 546 278 613 b 564 296 490 613 564 515 z m 710 315 b 418 654 710 507 603 654 b 211 546 347 654 254 619 l 211 1015 l 21 975 l 21 958 b 90 885 78 947 90 932 l 90 -244 b 35 -350 90 -315 88 -335 l 35 -368 l 268 -368 l 268 -350 b 211 -244 219 -337 211 -322 l 211 40 b 385 -12 256 7 314 -12 b 710 315 569 -12 710 99 z "},"ÿ":{"ha":739,"x_min":0,"x_max":0,"o":"m 476 790 b 542 856 513 790 542 819 b 476 921 542 892 513 921 b 413 856 440 921 413 892 b 476 790 413 819 440 790 z m 444 642 l 444 624 b 519 407 606 626 519 407 l 425 156 l 254 524 b 296 624 254 524 207 624 l 296 642 l 8 642 l 8 624 b 107 554 31 622 79 617 b 364 -7 107 554 199 360 l 300 -181 b 249 -233 281 -233 254 -251 b 213 -190 244 -217 232 -199 b 115 -228 175 -174 132 -189 b 153 -325 99 -264 115 -307 b 235 -314 178 -336 215 -331 b 321 -186 256 -299 292 -265 l 538 401 b 714 624 618 613 665 624 l 714 642 z m 256 790 b 319 856 290 790 319 819 b 256 921 319 892 290 921 b 192 856 219 921 192 892 b 256 790 192 819 219 790 z "},"Ă":{"ha":963,"x_min":0,"x_max":0,"o":"m 243 314 l 411 775 l 593 314 z m 935 18 b 821 131 896 21 867 19 b 479 978 821 131 649 569 l 464 978 l 232 346 b 24 18 111 25 76 19 l 24 0 l 333 0 l 333 18 b 239 296 140 13 201 185 l 599 296 l 647 175 b 618 18 679 97 693 18 l 618 0 l 935 0 z m 640 1258 b 475 1143 640 1207 610 1143 b 307 1258 338 1143 307 1207 l 293 1258 b 475 1064 293 1153 340 1064 b 653 1258 607 1064 653 1153 l 640 1258 z "},"ă":{"ha":674,"x_min":0,"x_max":0,"o":"m 413 343 b 413 136 413 343 413 138 b 290 50 399 103 364 50 b 181 160 206 50 181 119 b 413 343 181 243 251 304 z m 600 53 b 538 140 536 53 538 140 l 538 376 b 344 654 538 542 496 654 b 217 628 344 654 276 658 b 108 525 142 588 118 546 b 115 457 97 506 100 478 b 204 444 136 428 176 422 b 218 535 233 465 239 507 b 175 560 207 550 192 557 b 229 614 167 561 175 588 b 413 442 340 665 413 585 l 413 361 b 57 131 175 300 57 269 b 215 -12 57 -12 215 -12 b 413 104 313 -12 393 38 b 531 -12 421 -15 531 -12 b 658 82 603 -12 650 40 l 642 89 b 600 53 632 53 600 53 z m 526 976 b 361 861 526 925 496 861 b 193 976 224 861 193 925 l 179 976 b 361 782 179 871 226 782 b 539 976 493 782 539 871 z "},"Ą":{"ha":963,"x_min":0,"x_max":0,"o":"m 935 18 b 821 131 896 21 867 19 b 479 978 821 131 649 569 l 464 978 l 232 346 b 24 18 111 25 76 19 l 24 0 l 333 0 l 333 18 b 239 296 140 13 201 185 l 599 296 l 647 175 b 618 18 679 97 693 18 l 618 0 l 817 0 b 675 -207 711 -43 643 -110 b 808 -267 675 -207 699 -278 b 900 -157 879 -260 900 -214 l 882 -157 b 825 -224 882 -186 863 -222 b 739 -168 825 -224 756 -235 b 857 0 725 -115 775 -39 l 935 0 z m 243 314 l 411 775 l 593 314 z "},"ą":{"ha":674,"x_min":0,"x_max":0,"o":"m 554 -224 b 468 -168 554 -224 485 -235 b 576 -4 454 -118 500 -44 b 658 82 622 11 651 50 l 642 89 b 600 53 632 53 600 53 b 538 140 536 53 538 140 l 538 376 b 344 654 538 542 496 654 b 217 628 344 654 276 658 b 108 525 142 588 118 546 b 115 457 97 506 100 478 b 204 444 136 428 176 422 b 218 535 233 465 239 507 b 175 560 207 550 192 557 b 229 614 167 561 175 588 b 413 442 340 665 413 585 l 413 361 b 57 131 175 300 57 269 b 215 -12 57 -12 215 -12 b 413 104 313 -12 393 38 b 519 -12 419 8 490 -8 b 404 -207 429 -56 375 -119 b 538 -267 404 -207 428 -278 b 629 -157 608 -260 629 -214 l 611 -157 b 554 -224 611 -186 592 -222 z m 413 136 b 290 50 399 103 364 50 b 181 160 206 50 181 119 b 413 343 181 243 251 304 b 413 136 413 343 413 138 z "},"Ć":{"ha":932,"x_min":0,"x_max":0,"o":"m 838 288 b 538 6 819 76 650 6 b 233 489 397 6 233 63 b 538 972 233 908 393 972 b 838 690 650 972 799 919 l 856 690 l 872 906 b 538 990 785 976 681 990 b 56 489 250 990 56 801 b 538 -12 56 179 250 -12 b 872 74 686 -12 769 6 l 856 288 z m 297 1019 l 329 1019 l 656 1211 l 543 1246 z "},"ć":{"ha":668,"x_min":0,"x_max":0,"o":"m 607 178 b 394 64 582 121 496 56 b 192 335 296 74 192 150 b 400 636 192 594 344 636 b 518 594 493 636 531 597 b 479 565 504 593 489 582 b 503 478 461 536 471 496 b 592 501 532 460 574 472 b 590 569 604 524 601 550 b 400 654 578 592 536 654 b 63 319 188 654 63 490 b 365 -12 63 115 210 -12 b 622 171 536 -12 607 101 z m 182 750 l 214 750 l 540 942 l 428 976 z "},"Č":{"ha":932,"x_min":0,"x_max":0,"o":"m 838 288 b 538 6 819 76 650 6 b 233 489 397 6 233 63 b 538 972 233 908 393 972 b 838 690 650 972 799 919 l 856 690 l 872 906 b 538 990 785 976 681 990 b 56 489 250 990 56 801 b 538 -12 56 179 250 -12 b 872 74 686 -12 769 6 l 856 288 z m 511 1139 l 346 1281 l 314 1281 l 511 1019 l 710 1281 l 676 1281 z "},"č":{"ha":668,"x_min":0,"x_max":0,"o":"m 607 178 b 394 64 582 121 496 56 b 192 335 296 74 192 150 b 400 636 192 594 344 636 b 518 594 493 636 531 597 b 479 565 504 593 489 582 b 503 478 461 536 471 496 b 592 501 532 460 574 472 b 590 569 604 524 601 550 b 400 654 578 592 536 654 b 63 319 188 654 63 490 b 365 -12 63 115 210 -12 b 622 171 536 -12 607 101 z m 357 836 l 192 978 l 160 978 l 357 717 l 556 978 l 522 978 z "},"Ď":{"ha":994,"x_min":0,"x_max":0,"o":"m 744 486 b 360 18 744 25 510 18 l 299 18 l 299 960 l 360 960 b 744 486 513 960 744 935 z m 911 486 b 360 978 911 893 636 978 l 61 978 l 61 960 b 156 814 122 960 156 900 l 156 165 b 61 18 156 71 121 18 l 61 0 l 360 0 b 911 486 636 0 911 67 z m 418 1139 l 253 1281 l 221 1281 l 418 1019 l 617 1281 l 583 1281 z "},"ď":{"ha":918,"x_min":0,"x_max":0,"o":"m 758 978 b 696 729 758 779 696 729 l 708 714 b 857 978 708 714 857 803 z m 738 32 b 667 108 682 32 667 40 l 667 1025 l 476 988 l 476 969 b 547 892 533 958 547 940 l 547 603 b 376 654 501 635 444 654 b 50 329 190 654 50 544 b 343 -12 50 135 157 -12 b 547 90 411 -12 504 19 l 547 14 b 586 -11 547 14 547 -18 l 738 14 z m 547 192 b 386 28 547 94 478 28 b 194 349 265 28 194 128 b 379 636 194 571 288 636 b 547 435 464 636 547 569 z "},"Đ":{"ha":988,"x_min":0,"x_max":0,"o":"m 744 486 b 360 18 744 25 510 18 l 299 18 l 299 475 l 497 475 l 497 501 l 299 501 l 299 960 l 360 960 b 744 486 513 960 744 935 z m 911 486 b 360 978 911 893 636 978 l 61 978 l 61 960 b 156 814 122 960 156 900 l 156 501 l 28 501 l 28 475 l 156 475 l 156 165 b 61 18 156 71 121 18 l 61 0 l 360 0 b 911 486 636 0 911 67 z "},"đ":{"ha":790,"x_min":0,"x_max":0,"o":"m 547 192 b 386 28 547 94 478 28 b 194 349 265 28 194 128 b 379 636 194 571 288 636 b 547 435 464 636 547 569 z m 382 778 l 547 778 l 547 603 b 376 654 501 635 444 654 b 50 329 190 654 50 544 b 343 -12 50 135 157 -12 b 547 90 411 -12 504 19 l 547 14 b 586 -11 547 14 547 -18 l 738 14 l 738 32 b 667 108 682 32 667 40 l 667 778 l 819 778 l 819 804 l 667 804 l 667 1025 l 476 988 l 476 969 b 547 892 533 958 547 940 l 547 804 l 382 804 z "},"Ę":{"ha":828,"x_min":0,"x_max":0,"o":"m 724 289 b 325 18 694 11 449 18 l 261 18 l 261 485 l 351 485 b 543 344 386 485 536 483 l 561 344 l 561 643 l 543 643 b 351 503 536 503 389 503 l 261 503 l 261 960 l 336 960 b 706 728 449 960 689 957 l 724 728 l 724 978 l 43 978 l 43 960 b 118 829 104 960 118 915 l 118 163 b 43 18 118 68 101 18 l 43 0 l 665 0 b 524 -207 560 -43 492 -110 b 657 -267 524 -207 547 -278 b 749 -157 728 -260 749 -214 l 731 -157 b 674 -224 731 -186 711 -222 b 588 -168 674 -224 604 -235 b 706 0 574 -115 624 -39 l 742 0 l 742 289 z "},"ę":{"ha":682,"x_min":0,"x_max":0,"o":"m 586 171 b 379 60 561 103 463 51 b 181 333 269 71 186 146 l 625 333 b 353 654 625 551 514 654 b 50 315 181 654 50 521 b 347 -12 50 132 174 -12 l 358 -12 b 246 -207 269 -56 217 -119 b 379 -267 246 -207 269 -278 b 471 -157 450 -260 471 -214 l 453 -157 b 396 -224 453 -186 433 -222 b 310 -168 396 -224 326 -235 b 417 -6 296 -117 342 -46 b 603 164 533 19 589 108 z m 181 351 b 349 636 181 526 269 636 b 506 351 415 636 506 554 z "},"Ě":{"ha":828,"x_min":0,"x_max":0,"o":"m 724 289 b 325 18 694 11 449 18 l 261 18 l 261 485 l 351 485 b 543 344 386 485 536 483 l 561 344 l 561 643 l 543 643 b 351 503 536 503 389 503 l 261 503 l 261 960 l 336 960 b 706 728 449 960 689 957 l 724 728 l 724 978 l 43 978 l 43 960 b 118 829 104 960 118 915 l 118 163 b 43 18 118 68 101 18 l 43 0 l 742 0 l 742 289 z m 414 1139 l 249 1281 l 217 1281 l 414 1019 l 613 1281 l 579 1281 z "},"ě":{"ha":682,"x_min":0,"x_max":0,"o":"m 181 351 b 349 636 181 526 269 636 b 506 351 415 636 506 554 z m 586 171 b 379 60 561 103 463 51 b 181 333 269 71 186 146 l 625 333 b 353 654 625 551 514 654 b 50 315 181 654 50 521 b 347 -12 50 132 174 -12 b 603 164 511 -12 588 99 z m 336 836 l 171 978 l 139 978 l 336 717 l 535 978 l 501 978 z "},"ı":{"ha":340,"x_min":0,"x_max":0,"o":"m 288 18 b 231 129 238 31 231 51 l 231 654 l 39 614 l 39 597 b 110 514 97 582 110 563 l 110 129 b 54 18 110 58 107 33 l 54 0 l 288 0 l 288 18 z "},"Ĺ":{"ha":847,"x_min":0,"x_max":0,"o":"m 747 301 b 339 18 724 18 488 17 l 289 18 l 289 836 b 392 960 289 936 332 960 l 392 978 l 61 978 l 61 960 b 149 843 121 960 149 928 l 149 165 b 72 18 149 71 132 18 l 72 0 l 765 0 l 765 301 z m 199 1019 l 231 1019 l 557 1211 l 444 1246 z "},"ĺ":{"ha":326,"x_min":0,"x_max":0,"o":"m 279 18 b 224 128 231 31 224 51 l 224 1025 l 32 988 l 32 969 b 101 890 89 958 101 939 l 101 128 b 46 18 101 57 99 33 l 46 0 l 279 0 z m -21 1060 l 11 1060 l 338 1251 l 225 1286 z "},"Ľ":{"ha":842,"x_min":0,"x_max":0,"o":"m 442 978 b 381 729 442 779 381 729 l 392 714 b 542 978 392 714 542 803 z m 747 301 b 339 18 724 18 488 17 l 289 18 l 289 836 b 392 960 289 936 332 960 l 392 978 l 61 978 l 61 960 b 149 843 121 960 149 928 l 149 165 b 72 18 149 71 132 18 l 72 0 l 765 0 l 765 301 z "},"ľ":{"ha":503,"x_min":0,"x_max":0,"o":"m 326 978 b 265 729 326 779 265 729 l 276 714 b 426 978 276 714 426 803 z m 279 18 b 224 128 231 31 224 51 l 224 1025 l 32 988 l 32 969 b 101 890 89 958 101 939 l 101 128 b 46 18 101 57 99 33 l 46 0 l 279 0 z "},"Ł":{"ha":875,"x_min":0,"x_max":0,"o":"m 782 301 b 374 18 782 157 713 17 l 324 18 l 324 482 l 606 642 l 606 667 l 324 507 l 324 836 b 425 960 324 938 365 960 l 425 978 l 94 978 l 94 960 b 182 843 154 960 182 928 l 182 428 l 11 332 l 11 307 l 182 403 l 182 171 b 106 18 182 76 165 18 l 106 0 l 799 0 l 799 301 z "},"ł":{"ha":410,"x_min":0,"x_max":0,"o":"m 15 364 l 140 439 l 140 128 b 85 18 140 57 138 33 l 85 0 l 318 0 l 318 18 b 261 128 268 31 261 51 l 261 515 l 379 588 l 379 613 l 261 540 l 261 1036 l 71 992 l 71 974 b 140 894 128 964 140 943 l 140 464 l 15 389 z "},"Ń":{"ha":1121,"x_min":0,"x_max":0,"o":"m 689 978 l 689 961 b 871 632 872 961 871 761 l 871 203 l 271 978 l 14 978 l 14 961 b 179 856 50 958 90 967 l 236 782 l 236 347 b 35 18 236 222 236 18 l 35 0 l 436 0 l 436 18 b 254 347 254 18 254 225 l 254 761 l 844 0 l 889 0 l 889 632 b 1086 961 889 761 885 961 l 1086 978 z m 374 1019 l 406 1019 l 732 1211 l 619 1246 z "},"ń":{"ha":703,"x_min":0,"x_max":0,"o":"m 667 17 b 610 129 618 29 610 53 l 610 432 b 418 654 610 600 531 654 b 206 508 331 654 235 589 l 206 654 l 14 614 l 14 597 b 83 515 72 582 83 564 l 83 128 b 29 18 83 57 82 33 l 29 0 l 263 0 l 263 18 b 206 128 213 31 206 51 l 206 465 b 347 585 217 515 275 585 b 489 428 439 585 489 522 l 489 129 b 433 17 489 58 486 32 l 433 0 l 667 0 z m 181 750 l 213 750 l 539 942 l 426 976 z "},"Ň":{"ha":1121,"x_min":0,"x_max":0,"o":"m 689 978 l 689 961 b 871 632 872 961 871 761 l 871 203 l 271 978 l 14 978 l 14 961 b 179 856 50 958 90 967 l 236 782 l 236 347 b 35 18 236 222 236 18 l 35 0 l 436 0 l 436 18 b 254 347 254 18 254 225 l 254 761 l 844 0 l 889 0 l 889 632 b 1086 961 889 761 885 961 l 1086 978 z m 529 1139 l 364 1281 l 332 1281 l 529 1019 l 728 1281 l 694 1281 z "},"ň":{"ha":703,"x_min":0,"x_max":0,"o":"m 667 17 b 610 129 618 29 610 53 l 610 432 b 418 654 610 600 531 654 b 206 508 331 654 235 589 l 206 654 l 14 614 l 14 597 b 83 515 72 582 83 564 l 83 128 b 29 18 83 57 82 33 l 29 0 l 263 0 l 263 18 b 206 128 213 31 206 51 l 206 465 b 347 585 217 515 275 585 b 489 428 439 585 489 522 l 489 129 b 433 17 489 58 486 32 l 433 0 l 667 0 z m 364 836 l 199 978 l 167 978 l 364 717 l 563 978 l 529 978 z "},"Ő":{"ha":1025,"x_min":0,"x_max":0,"o":"m 799 482 b 508 6 799 100 672 6 b 217 482 343 6 217 100 b 508 972 217 863 343 972 b 799 482 672 972 799 863 z m 960 482 b 508 990 960 757 814 990 b 57 482 203 990 57 757 b 508 -12 57 206 203 -12 b 960 482 814 -12 960 206 z m 550 1021 l 581 1021 l 907 1214 l 788 1247 z m 314 1021 l 344 1021 l 671 1214 l 551 1247 z "},"ő":{"ha":753,"x_min":0,"x_max":0,"o":"m 553 321 b 376 6 553 69 482 6 b 197 321 269 6 197 69 b 376 636 197 572 269 636 b 553 321 482 636 553 572 z m 696 321 b 376 654 696 504 589 654 b 56 321 165 654 56 504 b 376 -12 56 139 165 -12 b 696 321 589 -12 696 139 z m 379 751 l 410 751 l 736 944 l 617 978 z m 143 751 l 174 751 l 500 944 l 381 978 z "},"Œ":{"ha":1296,"x_min":0,"x_max":0,"o":"m 621 139 b 483 4 621 22 551 4 b 219 481 318 4 219 99 b 483 971 219 861 318 971 b 621 829 551 971 621 956 z m 483 990 b 60 481 178 990 60 756 b 483 -12 60 204 178 -12 b 579 0 525 -12 543 -8 l 1200 0 l 1200 289 l 1182 289 b 814 18 1156 10 938 18 l 764 18 l 764 483 l 826 483 b 992 344 863 483 985 489 l 1010 344 l 1010 643 l 992 643 b 826 503 985 499 864 503 l 764 503 l 764 960 l 826 960 b 1164 728 939 960 1140 961 l 1182 728 l 1182 978 l 576 978 b 483 990 540 985 524 990 z "},"œ":{"ha":1094,"x_min":0,"x_max":0,"o":"m 638 343 b 786 636 638 526 703 636 b 924 343 851 636 924 554 z m 999 174 b 811 63 976 121 897 54 b 638 325 700 72 640 149 l 1038 325 b 786 654 1038 553 944 654 b 576 526 697 654 632 606 b 350 654 531 601 464 654 b 57 318 139 654 57 501 b 350 -12 57 136 139 -12 b 575 107 464 -12 525 33 b 788 -12 626 33 690 -12 b 1015 165 950 -12 1000 103 z m 350 636 b 499 318 447 636 499 569 b 350 6 499 67 450 6 b 199 318 249 6 199 67 b 350 636 199 569 249 636 z "},"Ŕ":{"ha":893,"x_min":0,"x_max":0,"o":"m 582 713 b 306 467 582 465 463 467 l 263 467 l 263 960 l 306 960 b 582 713 454 960 582 965 z m 885 18 b 736 140 849 21 761 35 b 476 458 664 444 568 454 b 735 713 626 468 735 524 b 306 978 735 944 582 978 l 40 978 l 40 960 b 126 854 101 960 126 940 l 126 163 b 40 18 126 46 100 18 l 40 0 l 351 0 l 351 18 b 263 144 293 18 263 49 l 263 449 l 328 449 b 543 303 364 449 504 449 b 779 0 622 1 601 0 l 885 0 z m 228 1019 l 260 1019 l 586 1211 l 474 1246 z "},"ŕ":{"ha":506,"x_min":0,"x_max":0,"o":"m 397 650 b 211 508 342 643 263 603 l 211 654 l 19 614 l 19 597 b 89 514 76 582 89 563 l 89 129 b 33 18 89 57 86 33 l 33 0 l 268 0 l 268 18 b 211 129 218 31 211 51 l 211 475 b 343 578 254 568 347 601 b 358 525 339 560 346 540 b 467 515 388 492 435 489 b 476 624 500 543 504 590 b 397 650 457 646 422 653 z m 94 750 l 126 750 l 453 942 l 340 976 z "},"Ř":{"ha":893,"x_min":0,"x_max":0,"o":"m 582 713 b 306 467 582 465 463 467 l 263 467 l 263 960 l 306 960 b 582 713 454 960 582 965 z m 885 18 b 736 140 849 21 761 35 b 476 458 664 444 568 454 b 735 713 626 468 735 524 b 306 978 735 944 582 978 l 40 978 l 40 960 b 126 854 101 960 126 940 l 126 163 b 40 18 126 46 100 18 l 40 0 l 351 0 l 351 18 b 263 144 293 18 263 49 l 263 449 l 328 449 b 543 303 364 449 504 449 b 779 0 622 1 601 0 l 885 0 z m 367 1139 l 201 1281 l 169 1281 l 367 1019 l 565 1281 l 532 1281 z "},"ř":{"ha":506,"x_min":0,"x_max":0,"o":"m 397 650 b 211 508 342 643 263 603 l 211 654 l 19 614 l 19 597 b 89 514 76 582 89 563 l 89 129 b 33 18 89 57 86 33 l 33 0 l 268 0 l 268 18 b 211 129 218 31 211 51 l 211 475 b 343 578 254 568 347 601 b 358 525 339 560 346 540 b 467 515 388 492 435 489 b 476 624 500 543 504 590 b 397 650 457 646 422 653 z m 243 838 l 78 979 l 46 979 l 243 718 l 442 979 l 408 979 z "},"Ś":{"ha":783,"x_min":0,"x_max":0,"o":"m 665 101 b 521 492 738 215 707 369 l 292 643 b 346 972 82 779 196 972 b 644 692 578 972 632 828 l 664 692 l 664 925 b 346 990 664 925 547 990 b 85 882 153 990 85 882 b 236 504 -22 718 104 592 l 467 356 b 390 6 629 240 601 6 b 76 332 154 6 92 163 l 60 332 l 60 65 b 390 -12 60 65 164 -12 b 665 101 606 -12 665 101 z m 192 1019 l 224 1019 l 550 1211 l 438 1246 z "},"ś":{"ha":579,"x_min":0,"x_max":0,"o":"m 486 56 b 388 342 553 151 513 264 l 247 429 b 268 636 126 506 136 636 b 478 440 429 636 468 522 l 494 440 l 494 610 b 268 654 494 610 428 654 b 85 575 126 654 85 575 b 193 307 29 479 60 396 l 333 222 b 310 6 439 153 457 6 b 85 232 129 6 94 140 l 67 232 l 67 43 b 310 -12 67 43 142 -12 b 486 56 439 -12 486 56 z m 101 750 l 133 750 l 460 942 l 347 976 z "},"Ş":{"ha":783,"x_min":0,"x_max":0,"o":"m 665 101 b 521 492 738 215 707 369 l 292 643 b 346 972 82 779 196 972 b 644 692 578 972 632 828 l 664 692 l 664 925 b 346 990 664 925 547 990 b 85 882 153 990 85 882 b 236 504 -22 718 104 592 l 467 356 b 390 6 629 240 601 6 b 76 332 154 6 92 163 l 60 332 l 60 65 b 339 -11 60 65 149 0 l 301 -121 b 447 -217 418 -96 447 -181 b 365 -300 449 -269 413 -300 b 317 -286 325 -299 314 -287 b 331 -271 322 -283 328 -279 b 310 -229 338 -253 328 -235 b 267 -247 293 -222 274 -229 b 274 -282 263 -260 267 -274 b 365 -312 282 -290 310 -312 b 507 -201 411 -312 496 -297 b 331 -87 517 -131 460 -58 l 357 -12 b 390 -12 368 -12 378 -12 b 665 101 606 -12 665 101 z "},"ş":{"ha":579,"x_min":0,"x_max":0,"o":"m 486 56 b 388 342 553 151 513 264 l 247 429 b 268 636 126 506 136 636 b 478 440 429 636 468 522 l 494 440 l 494 610 b 268 654 494 610 428 654 b 85 575 126 654 85 575 b 193 307 29 479 60 396 l 333 222 b 310 6 439 153 457 6 b 85 232 129 6 94 140 l 67 232 l 67 43 b 256 -11 67 43 126 -1 l 218 -121 b 364 -217 335 -96 364 -181 b 282 -300 365 -269 329 -300 b 233 -286 242 -299 231 -287 b 247 -271 239 -283 244 -279 b 226 -229 254 -253 244 -235 b 183 -247 210 -222 190 -229 b 190 -282 179 -260 183 -274 b 282 -312 199 -290 226 -312 b 424 -201 328 -312 413 -297 b 247 -87 433 -131 376 -58 l 274 -12 b 310 -12 285 -12 296 -12 b 486 56 439 -12 486 56 z "},"Š":{"ha":783,"x_min":0,"x_max":0,"o":"m 665 101 b 521 492 738 215 707 369 l 292 643 b 346 972 82 779 196 972 b 644 692 578 972 632 828 l 664 692 l 664 925 b 346 990 664 925 547 990 b 85 882 153 990 85 882 b 236 504 -22 718 104 592 l 467 356 b 390 6 629 240 601 6 b 76 332 154 6 92 163 l 60 332 l 60 65 b 390 -12 60 65 164 -12 b 665 101 606 -12 665 101 z m 367 1139 l 201 1281 l 169 1281 l 367 1019 l 565 1281 l 532 1281 z "},"š":{"ha":579,"x_min":0,"x_max":0,"o":"m 274 806 l 108 947 l 76 947 l 274 686 l 472 947 l 439 947 z m 486 56 b 388 342 553 151 513 264 l 247 429 b 268 636 126 506 136 636 b 478 440 429 636 468 522 l 494 440 l 494 610 b 268 654 494 610 428 654 b 85 575 126 654 85 575 b 193 307 29 479 60 396 l 333 222 b 310 6 439 153 457 6 b 85 232 129 6 94 140 l 67 232 l 67 43 b 310 -12 67 43 142 -12 b 486 56 439 -12 486 56 z "},"Ţ":{"ha":906,"x_min":0,"x_max":0,"o":"m 26 978 l 26 733 l 44 733 b 300 960 50 957 257 960 l 382 960 l 382 135 b 282 18 382 43 340 18 l 282 0 l 429 0 l 388 -121 b 533 -217 504 -96 533 -181 b 451 -300 535 -269 499 -300 b 403 -286 411 -299 400 -287 b 417 -271 408 -283 414 -279 b 396 -229 424 -253 414 -235 b 353 -247 379 -222 360 -229 b 360 -282 349 -260 353 -274 b 451 -312 368 -290 396 -312 b 593 -201 497 -312 582 -297 b 417 -87 603 -131 546 -58 l 447 0 l 621 0 l 621 18 b 519 135 563 18 519 43 l 519 960 l 601 960 b 858 733 621 960 853 957 l 876 733 l 876 978 z "},"ţ":{"ha":439,"x_min":0,"x_max":0,"o":"m 418 113 b 331 57 406 83 371 57 b 218 204 258 57 218 93 l 218 618 l 379 618 l 383 642 l 218 642 l 218 858 l 97 839 l 97 642 l 24 642 l 26 618 l 97 618 l 97 200 b 233 -11 97 47 147 -3 l 196 -121 b 342 -217 313 -96 342 -181 b 260 -300 343 -269 307 -300 b 211 -286 219 -299 208 -287 b 225 -271 217 -283 222 -279 b 204 -229 232 -253 222 -235 b 161 -247 188 -222 168 -229 b 168 -282 157 -260 161 -274 b 260 -312 176 -290 204 -312 b 401 -201 306 -312 390 -297 b 225 -87 411 -131 354 -58 l 251 -12 l 260 -12 b 426 108 336 -12 407 47 l 418 113 z "},"Ť":{"ha":906,"x_min":0,"x_max":0,"o":"m 26 978 l 26 733 l 44 733 b 300 960 50 957 257 960 l 382 960 l 382 135 b 282 18 382 43 340 18 l 282 0 l 621 0 l 621 18 b 519 135 563 18 519 43 l 519 960 l 601 960 b 858 733 621 960 853 957 l 876 733 l 876 978 z m 451 1139 l 286 1281 l 254 1281 l 451 1019 l 650 1281 l 617 1281 z "},"ť":{"ha":456,"x_min":0,"x_max":0,"o":"m 314 978 b 253 729 314 779 253 729 l 264 714 b 414 978 264 714 414 803 z m 408 114 b 324 56 397 85 364 56 b 218 204 258 56 218 93 l 218 624 l 379 624 l 383 642 l 218 642 l 218 858 l 97 839 l 97 642 l 24 642 l 26 624 l 97 624 l 97 200 b 260 -12 97 32 158 -12 b 422 107 340 -12 403 46 z "},"Ů":{"ha":994,"x_min":0,"x_max":0,"o":"m 447 -12 b 785 328 618 -12 785 79 l 785 706 b 963 960 785 836 781 960 l 963 978 l 601 978 l 601 960 b 767 706 764 960 767 836 l 767 328 b 515 50 767 149 657 50 b 263 321 365 50 263 149 l 263 838 b 372 960 263 947 313 960 l 372 978 l 26 978 l 26 960 b 125 839 88 960 125 933 l 125 333 b 447 -12 125 107 267 -12 z m 407 1222 b 492 1308 407 1271 444 1308 b 578 1222 540 1308 578 1271 b 492 1136 578 1175 540 1136 b 407 1222 444 1136 407 1175 z m 361 1222 b 492 1092 361 1151 421 1092 b 622 1222 564 1092 622 1151 b 492 1353 622 1294 564 1353 b 361 1222 421 1353 361 1294 z "},"ů":{"ha":725,"x_min":0,"x_max":0,"o":"m 700 33 b 629 115 642 40 629 49 l 629 654 l 443 628 l 443 611 b 508 513 511 607 508 597 l 508 163 b 364 56 483 104 433 56 b 221 201 283 56 221 96 l 221 654 l 24 628 l 24 611 b 101 510 103 606 101 599 l 101 197 b 300 -12 101 24 200 -12 b 508 128 393 -12 483 54 l 508 10 b 542 -11 508 10 508 -18 l 700 15 z m 304 854 b 389 940 304 903 342 940 b 475 854 438 940 475 903 b 389 768 475 807 438 768 b 304 854 342 768 304 807 z m 258 854 b 389 724 258 783 318 724 b 519 854 461 724 519 783 b 389 985 519 926 461 985 b 258 854 318 985 258 926 z "},"Ű":{"ha":994,"x_min":0,"x_max":0,"o":"m 447 -12 b 785 328 618 -12 785 79 l 785 706 b 963 960 785 836 781 960 l 963 978 l 601 978 l 601 960 b 767 706 764 960 767 836 l 767 328 b 515 50 767 149 657 50 b 263 321 365 50 263 149 l 263 838 b 372 960 263 947 313 960 l 372 978 l 26 978 l 26 960 b 125 839 88 960 125 933 l 125 333 b 447 -12 125 107 267 -12 z m 539 1021 l 569 1021 l 896 1214 l 776 1247 z m 303 1021 l 333 1021 l 660 1214 l 540 1247 z "},"ű":{"ha":725,"x_min":0,"x_max":0,"o":"m 700 33 b 629 115 642 40 629 49 l 629 654 l 443 628 l 443 611 b 508 513 511 607 508 597 l 508 163 b 364 56 483 104 433 56 b 221 201 283 56 221 96 l 221 654 l 24 628 l 24 611 b 101 510 103 606 101 599 l 101 197 b 300 -12 101 24 200 -12 b 508 128 393 -12 483 54 l 508 10 b 542 -11 508 10 508 -18 l 700 15 z m 386 751 l 417 751 l 743 944 l 624 978 z m 150 751 l 181 751 l 507 944 l 388 978 z "},"Ÿ":{"ha":961,"x_min":0,"x_max":0,"o":"m 532 1150 b 596 1085 532 1114 560 1085 b 661 1150 631 1085 661 1114 b 596 1215 661 1186 631 1215 b 532 1150 560 1215 532 1186 z m 585 978 l 585 961 b 644 676 772 961 690 774 l 540 461 l 338 804 b 369 963 243 964 331 963 l 369 978 l 13 978 l 13 963 b 158 853 58 960 96 958 b 419 400 158 853 215 761 l 419 156 b 315 18 419 43 374 18 l 315 0 l 654 0 l 654 18 b 550 156 596 18 550 43 l 550 436 l 657 653 b 942 961 813 958 882 961 l 942 978 z m 310 1150 b 374 1085 310 1114 339 1085 b 439 1150 410 1085 439 1114 b 374 1215 439 1186 410 1215 b 310 1150 339 1215 310 1186 z "},"Ź":{"ha":764,"x_min":0,"x_max":0,"o":"m 221 18 l 715 978 l 81 978 l 56 697 l 81 697 b 493 960 119 896 235 960 l 561 960 l 33 0 l 675 0 l 710 324 l 686 324 b 253 18 650 129 544 18 z m 224 1019 l 256 1019 l 582 1211 l 469 1246 z "},"ź":{"ha":600,"x_min":0,"x_max":0,"o":"m 540 642 l 68 642 l 61 458 l 79 458 b 400 624 101 589 214 624 l 40 0 l 513 0 l 525 211 l 507 211 b 196 17 488 86 404 17 z m 139 750 l 171 750 l 497 942 l 385 976 z "},"Ż":{"ha":764,"x_min":0,"x_max":0,"o":"m 221 18 l 715 978 l 81 978 l 56 697 l 81 697 b 493 960 119 896 235 960 l 561 960 l 33 0 l 675 0 l 710 324 l 686 324 b 253 18 650 129 544 18 z m 396 1101 b 469 1176 436 1101 469 1135 b 396 1250 469 1217 436 1250 b 321 1176 354 1250 321 1217 b 396 1101 321 1135 354 1101 z "},"ż":{"ha":600,"x_min":0,"x_max":0,"o":"m 540 642 l 68 642 l 61 458 l 79 458 b 400 624 101 589 214 624 l 40 0 l 513 0 l 525 211 l 507 211 b 196 17 488 86 404 17 z m 307 796 b 381 871 347 796 381 829 b 307 944 381 911 347 944 b 232 871 265 944 232 911 b 307 796 232 829 265 796 z "},"Ž":{"ha":764,"x_min":0,"x_max":0,"o":"m 221 18 l 715 978 l 81 978 l 56 697 l 81 697 b 493 960 119 896 235 960 l 561 960 l 33 0 l 675 0 l 710 324 l 686 324 b 253 18 650 129 544 18 z m 399 1139 l 233 1281 l 201 1281 l 399 1019 l 597 1281 l 564 1281 z "},"ž":{"ha":600,"x_min":0,"x_max":0,"o":"m 314 806 l 149 947 l 117 947 l 314 686 l 513 947 l 479 947 z m 540 642 l 68 642 l 61 458 l 79 458 b 400 624 101 589 214 624 l 40 0 l 513 0 l 525 211 l 507 211 b 196 17 488 86 404 17 z "},"ƒ":{"ha":861,"x_min":0,"x_max":0,"o":"m 807 883 b 803 957 818 906 815 938 b 674 1021 792 976 747 1021 b 386 529 489 1021 419 799 l 282 529 l 281 510 l 386 510 l 304 -74 b 178 -315 304 -74 267 -315 b 121 -283 111 -315 111 -286 b 157 -253 135 -279 150 -268 b 128 -164 174 -219 160 -179 b 40 -194 96 -149 56 -161 b 44 -268 29 -217 32 -249 b 178 -332 57 -287 93 -332 b 463 136 367 -333 418 -200 l 514 510 l 661 510 l 669 529 l 515 529 l 549 774 b 674 1004 549 774 588 1004 b 728 972 733 1004 735 974 b 690 940 711 968 697 957 b 721 853 675 907 688 869 b 807 883 751 838 792 850 z "},"ˆ":{"ha":396,"x_min":0,"x_max":0,"o":"m 197 879 l 363 738 l 396 738 l 197 999 l 0 738 l 32 738 z "},"ˇ":{"ha":399,"x_min":0,"x_max":0,"o":"m 197 858 l 32 1000 l 0 1000 l 197 739 l 396 1000 l 363 1000 z "},"ˉ":{"ha":424,"x_min":0,"x_max":0,"o":"m 458 824 l 458 901 l -35 901 l -35 824 z "},"˘":{"ha":357,"x_min":0,"x_max":0,"o":"m 346 976 b 181 861 346 925 315 861 b 13 976 43 861 13 925 l -1 976 b 181 782 -1 871 46 782 b 358 976 313 782 358 871 l 346 976 z "},"˙":{"ha":367,"x_min":0,"x_max":0,"o":"m 186 822 b 260 897 226 822 260 856 b 186 971 260 938 226 971 b 111 897 144 971 111 938 b 186 822 111 856 144 822 z "},"˚":{"ha":381,"x_min":0,"x_max":0,"o":"m 108 885 b 193 971 108 933 146 971 b 279 885 242 971 279 933 b 193 799 279 838 242 799 b 108 885 146 799 108 838 z m 63 885 b 193 754 63 814 122 754 b 324 885 265 754 324 814 b 193 1015 324 957 265 1015 b 63 885 122 1015 63 957 z "},"˛":{"ha":376,"x_min":0,"x_max":0,"o":"m 215 -182 b 333 -14 201 -129 251 -53 l 333 1 b 151 -221 206 -42 115 -112 b 285 -281 151 -221 175 -292 b 376 -171 356 -274 376 -228 l 358 -171 b 301 -237 358 -200 339 -236 b 215 -182 301 -237 232 -249 z "},"˜":{"ha":583,"x_min":0,"x_max":0,"o":"m 351 786 b 607 938 351 786 522 725 l 593 944 b 386 879 560 868 432 861 l 228 939 b -28 788 228 939 56 999 l -15 782 b 192 846 22 863 146 863 z "},"˝":{"ha":717,"x_min":0,"x_max":0,"o":"m 357 774 l 388 774 l 714 967 l 594 1000 z m 121 774 l 151 774 l 478 967 l 358 1000 z "},"Ω":{"ha":976,"x_min":0,"x_max":0,"o":"m 892 192 b 754 114 865 126 818 114 l 600 114 b 717 247 613 158 669 197 b 869 625 833 371 869 501 b 475 1021 869 843 739 1021 b 81 625 211 1021 81 843 b 233 247 81 501 117 371 b 350 114 281 197 338 158 l 196 114 b 58 192 131 114 85 126 l 40 192 l 76 0 l 419 0 b 226 618 388 163 226 258 b 475 1003 226 969 372 1003 b 722 618 578 1003 722 969 b 531 0 722 258 561 163 l 872 0 l 908 192 z "},"μ":{"ha":719,"x_min":0,"x_max":0,"o":"m 692 33 b 621 115 633 40 621 49 l 621 654 l 435 628 l 435 611 b 500 513 503 607 500 597 l 500 163 b 356 56 475 104 425 56 b 213 192 278 56 217 94 l 213 654 l 15 628 l 15 611 b 93 510 94 606 93 599 l 93 -346 b 128 -367 93 -346 92 -374 l 285 -340 l 285 -322 b 213 -235 226 -317 213 -303 l 213 8 b 500 128 335 -54 474 32 l 500 10 b 533 -11 500 10 500 -18 l 692 15 l 692 33 z "},"π":{"ha":797,"x_min":0,"x_max":0,"o":"m 704 72 b 660 44 704 72 694 44 b 590 136 628 44 590 64 l 590 544 l 610 544 b 778 722 739 544 778 603 l 763 722 b 589 638 758 644 701 638 l 247 638 b 13 463 78 635 13 463 l 26 453 b 235 544 81 528 178 543 l 247 544 l 232 251 b 89 -46 225 139 175 21 l 97 -58 b 300 243 97 -58 290 44 l 314 544 l 492 544 l 492 101 b 607 -12 492 101 492 -12 b 719 65 672 -12 710 22 z "},"‐":{"ha":621,"x_min":0,"x_max":0,"o":"m 89 397 l 89 308 l 526 308 l 526 397 z "},"–":{"ha":779,"x_min":0,"x_max":0,"o":"m 0 386 l 0 314 l 779 314 l 779 386 z "},"—":{"ha":1465,"x_min":0,"x_max":0,"o":"m 0 385 l 0 314 l 1465 314 l 1465 385 z "},"‘":{"ha":315,"x_min":0,"x_max":0,"o":"m 225 974 b 124 878 164 942 142 906 b 111 669 86 817 63 718 b 226 669 143 638 194 638 b 225 785 258 701 257 753 b 171 808 208 800 190 806 b 233 963 149 811 140 896 l 225 974 z "},"’":{"ha":315,"x_min":0,"x_max":0,"o":"m 104 646 b 206 742 165 678 188 714 b 218 950 243 803 267 901 b 103 950 186 982 135 982 b 104 835 71 918 72 867 b 158 811 121 819 139 814 b 96 657 181 808 189 724 l 104 646 z "},"‚":{"ha":328,"x_min":0,"x_max":0,"o":"m 103 -175 b 204 -79 164 -143 186 -107 b 217 129 242 -18 265 81 b 101 129 185 161 133 161 b 103 14 69 97 71 46 b 157 -10 119 -1 138 -7 b 94 -164 179 -12 188 -97 l 103 -175 z "},"“":{"ha":607,"x_min":0,"x_max":0,"o":"m 490 983 b 389 888 429 951 406 915 b 376 679 351 826 328 729 b 492 679 408 647 460 647 b 490 794 524 711 522 763 b 436 818 474 810 454 815 b 499 972 413 822 406 906 z m 213 983 b 113 888 153 951 129 915 b 100 679 75 826 51 729 b 215 679 132 647 183 647 b 214 794 247 711 246 763 b 158 818 197 810 178 815 b 222 972 136 822 129 906 z "},"”":{"ha":594,"x_min":0,"x_max":0,"o":"m 103 643 b 204 739 164 675 188 711 b 217 947 242 800 265 897 b 101 947 185 979 133 979 b 103 832 69 915 71 864 b 157 808 119 817 139 811 b 94 654 181 804 188 721 z m 381 643 b 481 739 440 675 464 711 b 493 947 518 800 542 897 b 378 947 461 979 410 979 b 379 832 346 915 347 864 b 435 808 396 817 415 811 b 371 654 457 804 464 721 z "},"„":{"ha":594,"x_min":0,"x_max":0,"o":"m 101 -174 b 203 -78 163 -142 186 -106 b 215 131 240 -17 264 81 b 100 131 183 163 132 163 b 101 15 68 99 69 47 b 156 -8 118 0 138 -6 b 93 -162 179 -12 186 -96 z m 379 -174 b 479 -78 439 -142 463 -106 b 492 131 517 -17 540 81 b 376 131 460 163 408 163 b 378 15 344 99 346 47 b 433 -8 394 0 414 -6 b 369 -162 456 -12 463 -96 z "},"†":{"ha":544,"x_min":0,"x_max":0,"o":"m 271 896 b 329 956 303 896 329 922 b 271 1014 329 988 303 1014 b 211 956 238 1014 211 988 b 271 896 211 922 238 896 z m 151 622 b 38 633 121 643 68 664 b 38 561 17 614 18 582 b 110 563 58 542 90 542 b 124 596 119 572 122 585 b 193 564 125 604 168 596 l 199 568 b 151 622 182 596 164 614 z m 282 560 b 308 757 282 644 308 693 b 271 842 308 757 315 842 b 233 757 226 842 233 757 b 260 560 233 693 260 643 b 208 406 260 560 263 489 b 267 -368 265 71 267 -326 l 276 -368 b 333 406 276 -328 276 71 b 282 560 279 486 282 560 z m 504 633 b 390 622 474 664 421 643 b 342 568 378 614 358 596 l 349 564 b 417 596 374 596 417 604 b 432 563 418 585 422 572 b 504 561 451 542 483 542 b 504 633 524 582 524 614 z "},"‡":{"ha":646,"x_min":0,"x_max":0,"o":"m 333 493 b 365 692 333 588 365 618 b 321 788 365 692 371 788 b 278 692 271 788 278 692 b 310 493 278 618 310 585 b 232 342 310 425 271 368 b 310 192 271 318 310 260 b 278 -8 310 96 278 65 b 322 -103 278 -8 272 -103 b 365 -8 372 -103 365 -8 b 333 192 365 65 333 99 b 411 342 333 260 372 314 b 333 493 372 365 333 425 z m 488 560 b 504 519 489 546 493 531 b 586 519 526 497 563 497 b 586 601 608 543 608 579 b 456 589 550 638 490 613 b 401 528 442 579 421 560 l 408 522 b 488 560 438 560 488 569 z m 321 850 b 389 917 358 850 389 881 b 321 985 389 954 358 985 b 254 917 285 985 254 954 b 321 850 254 881 285 850 z m 322 -164 b 254 -231 285 -164 254 -194 b 322 -299 254 -269 285 -299 b 389 -231 358 -299 389 -269 b 322 -164 389 -194 358 -164 z m 139 519 b 156 560 150 531 154 546 b 233 522 157 569 204 560 l 240 528 b 186 589 222 560 200 579 b 56 601 151 613 92 638 b 56 519 33 579 33 543 b 139 519 81 497 117 497 z m 504 167 b 488 128 493 156 489 142 b 408 165 488 118 439 128 l 403 160 b 457 99 421 128 443 108 b 588 86 490 75 551 50 b 588 168 610 108 610 144 b 504 167 563 190 526 190 z m 157 128 b 139 167 156 142 150 156 b 57 168 117 190 81 190 b 57 86 35 144 35 108 b 188 99 92 50 153 75 b 242 160 201 108 222 128 l 235 165 b 157 128 206 128 157 118 z "},"•":{"ha":588,"x_min":0,"x_max":0,"o":"m 297 338 b 435 474 374 338 435 399 b 297 611 435 551 374 611 b 160 474 222 611 160 551 b 297 338 160 399 222 338 z "},"…":{"ha":985,"x_min":0,"x_max":0,"o":"m 856 69 b 772 153 856 117 818 153 b 690 69 726 153 690 117 b 772 -11 690 25 726 -11 b 856 69 818 -11 856 25 z m 568 69 b 486 153 568 117 531 153 b 404 69 440 153 404 117 b 486 -11 404 25 440 -11 b 568 69 531 -11 568 25 z m 283 69 b 201 153 283 117 246 153 b 119 69 156 153 119 117 b 201 -11 119 25 156 -11 b 283 69 246 -11 283 25 z "},"‰":{"ha":1490,"x_min":0,"x_max":0,"o":"m 111 689 b 210 925 111 883 147 925 b 307 689 269 925 307 883 b 210 463 307 494 272 463 b 111 689 149 463 111 494 z m 396 689 b 210 943 396 807 361 943 b 24 689 57 943 24 807 b 210 444 24 569 57 444 b 396 689 361 444 396 569 z m 811 53 b 714 279 751 53 714 85 b 811 515 714 474 750 515 b 910 279 871 515 910 474 b 811 53 910 85 875 53 z m 811 533 b 625 279 658 533 625 397 b 811 35 625 160 658 35 b 997 279 964 35 997 160 b 811 533 997 397 964 533 z m 157 0 l 231 0 l 864 978 l 790 978 z m 1258 53 b 1160 279 1197 53 1160 85 b 1258 515 1160 474 1196 515 b 1356 279 1318 515 1356 474 b 1258 53 1356 85 1321 53 z m 1258 533 b 1072 279 1106 533 1072 397 b 1258 35 1072 160 1106 35 b 1444 279 1410 35 1444 160 b 1258 533 1444 397 1410 533 z "},"‹":{"ha":471,"x_min":0,"x_max":0,"o":"m 390 701 l 69 369 l 390 46 l 390 82 l 183 369 l 390 665 z "},"›":{"ha":471,"x_min":0,"x_max":0,"o":"m 67 665 l 274 369 l 67 82 l 67 46 l 388 369 l 67 701 z "},"⁄":{"ha":465,"x_min":0,"x_max":0,"o":"m 636 1019 l -203 0 l -142 0 l 699 1019 z "},"€":{"ha":828,"x_min":0,"x_max":0,"o":"m 308 576 b 521 972 322 913 425 972 b 728 736 599 972 728 931 l 746 736 l 746 919 b 521 990 675 976 631 990 b 169 576 300 990 192 833 l 36 576 l 22 556 l 167 556 b 165 489 165 532 165 508 b 167 425 165 469 165 446 l 36 425 l 22 404 l 169 404 b 521 -12 190 147 299 -12 b 746 58 626 -12 667 3 l 746 242 l 728 242 b 521 6 728 46 592 6 b 308 404 426 6 322 60 l 576 404 l 590 425 l 308 425 b 307 489 308 433 307 479 b 308 556 307 500 308 546 l 599 556 l 613 576 l 308 576 z "},"ℓ":{"ha":472,"x_min":0,"x_max":0,"o":"m 242 740 b 360 964 242 1072 346 982 b 300 501 418 889 439 633 l 240 444 z m 424 136 b 340 46 401 67 365 51 b 238 240 271 35 232 113 l 239 392 l 318 467 b 372 978 454 589 465 872 b 118 717 286 1075 118 1032 l 118 371 l 31 301 l 31 251 l 118 318 l 118 278 b 299 -12 118 53 192 -12 b 439 131 363 -12 429 46 z "},"™":{"ha":931,"x_min":0,"x_max":0,"o":"m 851 656 l 851 910 b 894 960 851 949 871 960 l 894 978 l 794 978 l 678 664 l 535 978 l 422 978 l 422 960 b 482 933 436 960 465 960 l 482 729 b 407 597 482 665 476 597 l 407 579 l 565 579 l 565 597 b 501 729 503 597 501 664 l 501 907 l 650 574 l 664 574 l 794 922 l 794 656 b 753 597 794 610 776 597 l 753 579 l 899 579 l 899 597 b 851 656 874 597 851 610 z m 18 978 l 18 864 l 36 864 b 129 960 36 960 113 960 l 163 960 l 163 644 b 122 597 163 607 146 597 l 122 579 l 260 579 l 260 597 b 219 644 236 597 219 607 l 219 960 l 251 960 b 346 864 260 960 346 960 l 364 864 l 364 978 z "},"Ω":{"ha":976,"x_min":0,"x_max":0,"o":"m 892 192 b 754 114 865 126 818 114 l 600 114 b 717 247 613 158 669 197 b 869 625 833 371 869 501 b 475 1021 869 843 739 1021 b 81 625 211 1021 81 843 b 233 247 81 501 117 371 b 350 114 281 197 338 158 l 196 114 b 58 192 131 114 85 126 l 40 192 l 76 0 l 419 0 b 226 618 388 163 226 258 b 475 1003 226 969 372 1003 b 722 618 578 1003 722 969 b 531 0 722 258 561 163 l 872 0 l 908 192 z "},"℮":{"ha":1239,"x_min":0,"x_max":0,"o":"m 236 847 b 617 986 333 933 468 986 b 1003 842 768 986 906 931 l 1003 543 l 236 543 z m 617 1021 b 43 510 300 1021 43 792 b 617 0 43 228 300 0 b 1067 194 800 0 961 76 l 1019 194 b 617 33 921 96 776 33 b 236 174 468 33 333 88 l 236 510 l 1190 510 b 617 1021 1190 792 933 1021 z "},"∂":{"ha":704,"x_min":0,"x_max":0,"o":"m 317 6 b 189 292 221 6 165 57 b 376 582 211 506 300 582 b 506 468 431 582 488 533 b 317 6 478 157 411 6 z m 344 1033 b 92 906 238 1033 131 981 l 131 788 l 147 793 b 344 1015 129 901 244 1015 b 510 503 469 1015 542 901 b 326 632 483 601 381 632 b 57 311 171 632 71 471 b 317 -12 39 103 135 -12 b 642 465 522 -12 624 206 b 344 1033 667 808 571 1033 z "},"∆":{"ha":992,"x_min":0,"x_max":0,"o":"m 99 50 l 435 842 l 769 50 z m 521 1025 l 444 1000 l 46 39 l 44 36 l 53 0 l 908 0 l 929 44 z "},"∏":{"ha":968,"x_min":0,"x_max":0,"o":"m 819 822 b 919 960 819 918 851 960 l 919 978 l 63 978 l 63 960 b 165 822 132 960 165 918 l 165 63 b 63 -100 165 -44 129 -100 l 63 -118 l 407 -118 l 407 -100 b 314 63 342 -100 314 -44 l 314 818 b 407 958 314 915 340 958 l 569 958 b 669 818 638 958 669 915 l 669 63 b 569 -100 669 -44 636 -100 l 569 -118 l 919 -118 l 919 -100 b 819 63 853 -100 819 -44 l 819 822 z "},"∑":{"ha":921,"x_min":0,"x_max":0,"o":"m 224 960 l 397 960 b 824 694 601 960 779 882 l 847 694 l 819 978 l 28 978 l 381 333 l 104 -136 l 836 -136 l 874 196 l 851 196 b 367 -118 819 51 768 -118 l 188 -118 l 524 439 z "},"−":{"ha":869,"x_min":0,"x_max":0,"o":"m 807 308 l 807 396 l 67 396 l 67 308 z "},"∕":{"ha":489,"x_min":0,"x_max":0,"o":"m 636 1019 l -203 0 l -114 0 l 726 1019 z "},"∙":{"ha":347,"x_min":0,"x_max":0,"o":"m 175 346 b 243 414 213 346 243 376 b 175 482 243 451 213 482 b 108 414 138 482 108 451 b 175 346 108 376 138 346 z "},"√":{"ha":785,"x_min":0,"x_max":0,"o":"m 499 -11 l 253 567 l 64 486 l 69 471 b 206 383 122 492 175 456 l 479 -258 l 504 -249 l 754 1183 l 707 1197 z "},"∞":{"ha":1110,"x_min":0,"x_max":0,"o":"m 940 564 b 783 632 899 607 843 632 b 628 564 724 632 669 608 b 547 476 625 561 547 476 b 465 564 547 476 468 563 b 310 632 424 607 369 632 b 151 565 250 632 193 607 b 151 246 71 478 68 332 b 310 179 193 204 250 179 b 465 246 369 179 424 203 b 547 335 468 249 547 335 b 628 246 547 335 625 249 b 783 179 669 203 724 179 b 940 246 843 179 899 203 b 940 564 1025 333 1025 476 z m 221 499 b 310 536 244 522 276 536 b 396 499 342 536 374 524 b 481 406 399 494 481 406 b 397 311 481 406 400 315 b 310 275 374 288 342 275 b 222 313 276 275 244 289 b 185 406 197 338 185 369 b 221 499 185 440 197 474 z m 872 313 b 783 275 849 289 817 275 b 697 313 751 275 719 289 b 613 404 693 317 613 404 b 697 499 613 404 694 496 b 783 536 719 522 751 536 b 872 499 817 536 849 522 b 908 406 896 474 908 440 b 872 313 908 369 896 338 z "},"∫":{"ha":489,"x_min":0,"x_max":0,"o":"m 458 1036 b 450 1101 465 1056 463 1085 b 342 1146 436 1118 404 1146 b 174 618 188 1146 144 968 l 222 7 b 153 -276 250 -278 157 -276 b 111 -254 114 -276 103 -256 b 142 -224 124 -249 135 -239 b 108 -149 153 -194 138 -161 b 33 -182 78 -136 44 -151 b 43 -247 25 -201 31 -229 b 151 -292 54 -262 89 -292 b 321 235 308 -292 350 -114 l 272 847 b 342 1129 247 1131 335 1129 b 382 1110 381 1129 388 1111 b 350 1079 368 1104 356 1094 b 383 1004 338 1049 353 1017 b 458 1036 413 992 446 1006 z "},"≈":{"ha":715,"x_min":0,"x_max":0,"o":"m 417 443 b 672 594 417 443 588 382 l 658 601 b 451 536 625 525 497 518 l 293 596 b 38 444 293 596 121 656 l 50 439 b 257 503 88 519 211 519 z m 417 194 b 672 346 417 194 588 133 l 658 353 b 451 288 625 276 497 269 l 293 347 b 38 196 293 347 121 407 l 50 190 b 257 254 88 271 211 271 z "},"≠":{"ha":732,"x_min":0,"x_max":0,"o":"m 667 486 l 667 568 l 500 568 l 572 725 l 499 760 l 408 568 l 64 568 l 64 486 l 369 486 l 283 300 l 64 300 l 64 218 l 244 218 l 178 75 l 251 40 l 335 218 l 667 218 l 667 300 l 374 300 l 461 486 z "},"≤":{"ha":739,"x_min":0,"x_max":0,"o":"m 225 478 l 665 706 l 665 811 l 78 510 l 78 447 l 665 146 l 665 249 z m 65 67 l 65 -14 l 665 -14 l 665 67 z "},"≥":{"ha":739,"x_min":0,"x_max":0,"o":"m 76 249 l 76 146 l 664 447 l 664 510 l 76 811 l 76 706 l 517 478 z m 76 67 l 76 -14 l 676 -14 l 676 67 z "},"◊":{"ha":776,"x_min":0,"x_max":0,"o":"m 608 454 l 386 19 l 163 454 l 386 888 z m 418 1018 l 356 1018 l 67 454 l 356 -110 l 418 -110 l 707 454 z "},"":{"ha":765,"x_min":0,"x_max":0,"o":"m 557 318 b 389 6 557 49 483 6 b 219 318 294 6 219 49 b 389 636 219 590 294 636 b 557 318 483 636 557 590 z m 701 318 b 389 654 701 544 585 654 b 78 318 196 654 78 535 b 389 -12 78 96 196 -12 b 701 318 585 -12 701 93 z "},"":{"ha":657,"x_min":0,"x_max":0,"o":"m 281 125 b 167 17 281 22 222 17 l 167 0 l 507 0 l 507 17 b 401 125 458 17 401 18 l 401 654 l 381 654 l 158 565 l 163 549 b 281 504 249 590 281 578 z "},"":{"ha":669,"x_min":0,"x_max":0,"o":"m 549 182 b 446 114 521 128 490 114 l 232 110 b 536 519 378 268 569 342 b 201 622 503 696 261 661 b 111 522 129 576 115 539 b 132 463 107 503 114 479 b 217 469 157 442 194 444 b 210 554 238 494 236 533 b 165 565 196 565 179 568 b 207 608 158 565 160 588 b 401 513 276 642 369 611 b 240 151 431 419 399 308 l 100 0 l 514 0 l 565 182 z "},"":{"ha":732,"x_min":0,"x_max":0,"o":"m 115 -287 b 349 -368 153 -331 226 -368 b 668 -51 469 -368 676 -293 b 444 193 665 49 589 158 b 356 654 707 342 579 654 b 101 424 329 654 118 651 l 122 421 b 408 524 146 550 319 600 b 275 161 528 422 488 197 l 275 142 b 543 -89 481 126 536 -6 b 347 -350 556 -247 489 -350 b 201 -303 236 -350 190 -306 b 243 -264 221 -296 235 -283 b 200 -164 258 -224 240 -179 b 101 -208 161 -149 115 -168 b 115 -287 90 -236 97 -268 z "},"":{"ha":789,"x_min":0,"x_max":0,"o":"m 435 6 l 171 6 b 151 63 133 6 114 6 l 435 486 z m 706 -67 l 706 6 l 572 6 l 572 642 l 524 647 l 58 -47 l 58 -67 l 435 -67 l 435 -207 b 331 -350 435 -344 389 -350 l 331 -368 l 676 -368 l 676 -350 b 572 -200 618 -350 572 -347 l 572 -67 z "},"":{"ha":768,"x_min":0,"x_max":0,"o":"m 696 -14 b 142 242 679 158 494 324 l 183 513 l 626 513 l 664 642 l 183 642 l 100 118 b 585 -50 407 183 551 63 b 342 -350 635 -212 515 -350 b 204 -300 236 -350 189 -306 b 246 -258 222 -292 239 -279 b 199 -157 260 -217 239 -171 b 97 -206 157 -143 111 -164 b 115 -287 88 -233 97 -268 b 342 -368 135 -308 206 -368 b 696 -14 519 -368 719 -262 z "},"":{"ha":767,"x_min":0,"x_max":0,"o":"m 564 304 b 389 6 564 89 493 6 b 210 414 265 6 210 140 b 404 606 210 504 294 606 b 564 304 483 606 564 513 z m 703 329 b 443 654 703 471 640 654 b 210 472 335 654 247 585 b 457 971 210 863 317 979 b 546 942 533 968 556 940 b 497 917 528 944 510 932 b 508 815 472 888 476 840 b 611 826 539 790 585 794 b 619 903 628 847 631 881 b 436 990 610 922 576 990 b 63 438 217 990 63 743 b 389 -12 63 161 154 -12 b 703 329 582 -12 703 114 z "},"":{"ha":764,"x_min":0,"x_max":0,"o":"m 106 642 l 79 440 l 97 440 b 217 521 122 497 151 521 l 642 521 b 283 -361 376 160 296 -22 l 429 -361 b 661 521 429 -53 476 193 l 732 642 z "},"":{"ha":760,"x_min":0,"x_max":0,"o":"m 558 765 b 440 571 560 660 490 588 b 219 814 292 631 219 692 b 381 972 219 915 299 972 b 558 765 464 972 556 932 z m 397 -12 b 714 263 576 -12 714 67 b 461 560 714 397 597 492 b 647 774 567 586 647 692 b 381 990 647 906 547 990 b 110 747 236 990 110 908 b 296 483 110 640 157 565 b 61 221 171 443 61 340 b 397 -12 61 54 192 -12 z m 367 444 b 593 203 511 368 592 307 b 397 6 594 50 476 6 b 169 226 274 6 169 72 b 314 472 169 385 267 450 b 367 444 335 460 343 457 z "},"":{"ha":749,"x_min":0,"x_max":0,"o":"m 192 333 b 367 636 192 549 263 636 b 546 221 490 636 546 479 b 351 35 546 131 461 35 b 192 333 272 35 192 125 z m 53 310 b 313 -12 53 167 115 -12 b 546 161 421 -12 510 51 b 304 -350 546 -257 482 -357 b 206 -310 229 -346 196 -310 b 258 -283 225 -310 244 -299 b 246 -175 285 -250 279 -200 b 138 -187 213 -147 164 -153 b 128 -268 118 -210 115 -244 b 325 -368 138 -289 172 -368 b 693 196 575 -368 693 -156 b 367 654 693 472 601 654 b 53 310 174 654 53 539 z "},"":{"ha":747,"x_min":0,"x_max":0,"o":"m 383 6 l 383 407 l 465 354 b 383 6 613 250 618 14 z m 344 606 l 290 642 b 344 972 82 778 194 969 z m 519 492 l 383 581 l 383 971 b 650 690 582 958 636 818 l 663 690 l 663 925 b 383 990 663 925 561 982 l 383 1161 l 344 1161 l 344 990 b 83 882 153 989 83 882 b 235 504 -24 717 103 592 l 344 433 l 344 7 b 69 332 143 28 83 172 l 58 332 l 58 65 b 344 -12 58 65 150 -3 l 344 -181 l 383 -181 l 383 -12 b 664 100 575 -8 635 67 b 519 492 736 215 706 368 z "},"":{"ha":700,"x_min":0,"x_max":0,"o":"m 233 336 b 415 635 233 561 349 624 l 415 67 b 233 336 324 86 233 163 z m 649 178 b 442 64 625 122 542 58 l 442 636 b 560 596 533 636 574 596 b 521 567 546 592 531 582 b 544 478 503 536 513 497 b 633 503 574 460 615 474 b 632 571 646 524 643 551 b 442 654 619 593 578 654 l 442 824 l 415 824 l 415 654 b 104 321 218 642 104 483 b 415 -12 104 119 235 -10 l 415 -164 l 442 -164 l 442 -12 b 664 171 588 0 649 106 z "},"":{"ha":747,"x_min":0,"x_max":0,"o":"m 383 6 l 383 407 l 465 354 b 383 6 613 250 618 14 z m 344 606 l 290 642 b 344 972 82 778 194 969 z m 519 492 l 383 581 l 383 971 b 650 690 582 958 636 818 l 663 690 l 663 925 b 383 990 663 925 561 982 l 383 1161 l 344 1161 l 344 990 b 83 882 153 989 83 882 b 235 504 -24 717 103 592 l 344 433 l 344 7 b 69 332 143 28 83 172 l 58 332 l 58 65 b 344 -12 58 65 150 -3 l 344 -181 l 383 -181 l 383 -12 b 664 100 575 -8 635 67 b 519 492 736 215 706 368 z "},"":{"ha":765,"x_min":0,"x_max":0,"o":"m 557 318 b 389 6 557 49 483 6 b 219 318 294 6 219 49 b 389 636 219 590 294 636 b 557 318 483 636 557 590 z m 701 318 b 389 654 701 544 585 654 b 78 318 196 654 78 535 b 389 -12 78 96 196 -12 b 701 318 585 -12 701 93 z "},"":{"ha":657,"x_min":0,"x_max":0,"o":"m 281 125 b 167 17 281 22 222 17 l 167 0 l 507 0 l 507 17 b 401 125 458 17 401 18 l 401 654 l 381 654 l 158 565 l 163 549 b 281 504 249 590 281 578 z "},"":{"ha":669,"x_min":0,"x_max":0,"o":"m 549 182 b 446 114 521 128 490 114 l 232 110 b 536 519 378 268 569 342 b 201 622 503 696 261 661 b 111 522 129 576 115 539 b 132 463 107 503 114 479 b 217 469 157 442 194 444 b 210 554 238 494 236 533 b 165 565 196 565 179 568 b 207 608 158 565 160 588 b 401 513 276 642 369 611 b 240 151 431 419 399 308 l 100 0 l 514 0 l 565 182 z "},"":{"ha":732,"x_min":0,"x_max":0,"o":"m 115 -287 b 349 -368 153 -331 226 -368 b 668 -51 469 -368 676 -293 b 444 193 665 49 589 158 b 356 654 707 342 579 654 b 101 424 329 654 118 651 l 122 421 b 408 524 146 550 319 600 b 275 161 528 422 488 197 l 275 142 b 543 -89 481 126 536 -6 b 347 -350 556 -247 489 -350 b 201 -303 236 -350 190 -306 b 243 -264 221 -296 235 -283 b 200 -164 258 -224 240 -179 b 101 -208 161 -149 115 -168 b 115 -287 90 -236 97 -268 z "},"":{"ha":789,"x_min":0,"x_max":0,"o":"m 435 6 l 171 6 b 151 63 133 6 114 6 l 435 486 z m 706 -67 l 706 6 l 572 6 l 572 642 l 524 647 l 58 -47 l 58 -67 l 435 -67 l 435 -207 b 331 -350 435 -344 389 -350 l 331 -368 l 676 -368 l 676 -350 b 572 -200 618 -350 572 -347 l 572 -67 z "},"":{"ha":768,"x_min":0,"x_max":0,"o":"m 696 -14 b 142 242 679 158 494 324 l 183 513 l 626 513 l 664 642 l 183 642 l 100 118 b 585 -50 407 183 551 63 b 342 -350 635 -212 515 -350 b 204 -300 236 -350 189 -306 b 246 -258 222 -292 239 -279 b 199 -157 260 -217 239 -171 b 97 -206 157 -143 111 -164 b 115 -287 88 -233 97 -268 b 342 -368 135 -308 206 -368 b 696 -14 519 -368 719 -262 z "},"":{"ha":767,"x_min":0,"x_max":0,"o":"m 564 304 b 389 6 564 89 493 6 b 210 414 265 6 210 140 b 404 606 210 504 294 606 b 564 304 483 606 564 513 z m 703 329 b 443 654 703 471 640 654 b 210 472 335 654 247 585 b 457 971 210 863 317 979 b 546 942 533 968 556 940 b 497 917 528 944 510 932 b 508 815 472 888 476 840 b 611 826 539 790 585 794 b 619 903 628 847 631 881 b 436 990 610 922 576 990 b 63 438 217 990 63 743 b 389 -12 63 161 154 -12 b 703 329 582 -12 703 114 z "},"":{"ha":764,"x_min":0,"x_max":0,"o":"m 106 642 l 79 440 l 97 440 b 217 521 122 497 151 521 l 642 521 b 283 -361 376 160 296 -22 l 429 -361 b 661 521 429 -53 476 193 l 732 642 z "},"":{"ha":760,"x_min":0,"x_max":0,"o":"m 558 765 b 440 571 560 660 490 588 b 219 814 292 631 219 692 b 381 972 219 915 299 972 b 558 765 464 972 556 932 z m 397 -12 b 714 263 576 -12 714 67 b 461 560 714 397 597 492 b 647 774 567 586 647 692 b 381 990 647 906 547 990 b 110 747 236 990 110 908 b 296 483 110 640 157 565 b 61 221 171 443 61 340 b 397 -12 61 54 192 -12 z m 367 444 b 593 203 511 368 592 307 b 397 6 594 50 476 6 b 169 226 274 6 169 72 b 314 472 169 385 267 450 b 367 444 335 460 343 457 z "},"":{"ha":749,"x_min":0,"x_max":0,"o":"m 192 333 b 367 636 192 549 263 636 b 546 221 490 636 546 479 b 351 35 546 131 461 35 b 192 333 272 35 192 125 z m 53 310 b 313 -12 53 167 115 -12 b 546 161 421 -12 510 51 b 304 -350 546 -257 482 -357 b 206 -310 229 -346 196 -310 b 258 -283 225 -310 244 -299 b 246 -175 285 -250 279 -200 b 138 -187 213 -147 164 -153 b 128 -268 118 -210 115 -244 b 325 -368 138 -289 172 -368 b 693 196 575 -368 693 -156 b 367 654 693 472 601 654 b 53 310 174 654 53 539 z "},"":{"ha":700,"x_min":0,"x_max":0,"o":"m 233 336 b 415 635 233 561 349 624 l 415 67 b 233 336 324 86 233 163 z m 649 178 b 442 64 625 122 542 58 l 442 636 b 560 596 533 636 574 596 b 521 567 546 592 531 582 b 544 478 503 536 513 497 b 633 503 574 460 615 474 b 632 571 646 524 643 551 b 442 654 619 593 578 654 l 442 824 l 415 824 l 415 654 b 104 321 218 642 104 483 b 415 -12 104 119 235 -10 l 415 -164 l 442 -164 l 442 -12 b 664 171 588 0 649 106 z "},"ﬁ":{"ha":728,"x_min":0,"x_max":0,"o":"m 675 11 b 618 122 625 24 618 46 l 618 642 l 428 642 l 236 642 l 236 675 b 426 1017 236 1004 368 1017 b 526 954 521 1017 558 953 b 479 928 508 956 492 943 b 492 824 453 894 458 850 b 594 838 522 800 569 806 b 606 921 611 860 611 893 b 426 1035 590 996 511 1035 b 115 657 229 1035 115 949 l 115 642 l 24 642 l 26 624 l 115 624 l 115 118 b 60 11 115 47 113 22 l 60 0 l 303 0 l 303 11 b 236 118 254 19 236 42 l 236 624 l 426 624 b 496 533 482 624 496 582 l 496 122 b 442 11 496 51 494 26 l 442 0 l 675 0 l 675 11 z "},"ﬂ":{"ha":721,"x_min":0,"x_max":0,"o":"m 689 18 b 632 122 639 31 632 46 l 632 1036 l 476 1000 b 338 1035 440 1022 394 1035 b 103 697 197 1035 103 936 l 103 642 l 11 642 l 13 624 l 103 624 l 103 118 b 47 17 103 47 100 29 l 47 0 l 292 0 l 292 17 b 224 118 242 26 224 42 l 224 624 l 369 624 l 372 642 l 224 642 l 224 669 b 414 994 224 1001 349 1006 b 510 897 475 985 510 954 l 510 122 b 456 18 510 51 508 33 l 456 0 l 689 0 l 689 18 z "},"ș":{"ha":579,"x_min":0,"x_max":0,"o":"m 243 -368 b 344 -272 304 -336 326 -300 b 357 -64 382 -211 406 -112 b 242 -64 325 -32 274 -32 b 243 -179 210 -96 211 -147 b 297 -203 260 -194 278 -200 b 235 -357 319 -206 328 -290 z m 486 56 b 388 342 553 151 513 264 l 247 429 b 268 636 126 506 136 636 b 478 440 429 636 468 522 l 494 440 l 494 610 b 268 654 494 610 428 654 b 85 575 126 654 85 575 b 193 307 29 479 60 396 l 333 222 b 310 6 439 153 457 6 b 85 232 129 6 94 140 l 67 232 l 67 43 b 310 -12 67 43 142 -12 b 486 56 439 -12 486 56 z "},"ț":{"ha":439,"x_min":0,"x_max":0,"o":"m 189 -368 b 290 -272 250 -336 272 -300 b 303 -64 328 -211 351 -112 b 188 -64 271 -32 219 -32 b 189 -179 156 -96 157 -147 b 243 -203 206 -194 224 -200 b 181 -357 265 -206 274 -290 z m 408 114 b 324 56 397 85 364 56 b 218 204 258 56 218 93 l 218 624 l 379 624 l 383 642 l 218 642 l 218 858 l 97 839 l 97 642 l 24 642 l 26 624 l 97 624 l 97 200 b 260 -12 97 32 158 -12 b 422 107 340 -12 403 46 z "},"Ț":{"ha":906,"x_min":0,"x_max":0,"o":"m 397 -368 b 499 -272 458 -336 481 -300 b 511 -64 536 -211 560 -112 b 396 -64 479 -32 428 -32 b 397 -179 364 -96 365 -147 b 451 -203 414 -194 432 -200 b 389 -357 474 -206 482 -290 z m 26 978 l 26 733 l 44 733 b 300 960 50 957 257 960 l 382 960 l 382 135 b 282 18 382 43 340 18 l 282 0 l 621 0 l 621 18 b 519 135 563 18 519 43 l 519 960 l 601 960 b 858 733 621 960 853 957 l 876 733 l 876 978 z "},"Ș":{"ha":783,"x_min":0,"x_max":0,"o":"m 328 -368 b 429 -272 389 -336 411 -300 b 442 -64 467 -211 490 -112 b 326 -64 410 -32 358 -32 b 328 -179 294 -96 296 -147 b 382 -203 344 -194 363 -200 b 319 -357 404 -206 413 -290 z m 665 101 b 521 492 738 215 707 369 l 292 643 b 346 972 82 779 196 972 b 644 692 578 972 632 828 l 664 692 l 664 925 b 346 990 664 925 547 990 b 85 882 153 990 85 882 b 236 504 -22 718 104 592 l 467 356 b 390 6 629 240 601 6 b 76 332 154 6 92 163 l 60 332 l 60 65 b 390 -12 60 65 164 -12 b 665 101 606 -12 665 101 z "}}}
